<svg width="19" height="20" viewBox="0 0 19 20" fill="none" xmlns="http://www.w3.org/2000/svg">
<g id="eu_logo">
<g id="eu_logo_2">
<mask id="mask0_322_652" style="mask-type:luminance" maskUnits="userSpaceOnUse" x="0" y="0" width="19" height="20">
<g id="clip0">
<path id="Vector" d="M18.151 0H0V20H18.151V0Z" fill="white"/>
</g>
</mask>
<g mask="url(#mask0_322_652)">
<g id="Group">
<path id="Vector_2" fill-rule="evenodd" clip-rule="evenodd" d="M11.076 3.51217C11.076 3.51217 11.0418 3.52839 11.0278 3.53577C11.0056 3.5466 10.9804 3.54974 10.9563 3.54461C10.9089 3.52128 10.8569 3.50871 10.8041 3.50775C10.7186 3.50775 10.5959 3.56673 10.5974 3.70275C10.5951 3.76497 10.6026 3.82719 10.6199 3.88706C10.6247 3.91397 10.628 3.92613 10.628 3.92613C10.628 3.92613 10.3616 3.97663 10.3752 4.2166C10.3856 4.39353 10.4335 4.40091 10.4626 4.4116C10.4626 4.4116 10.5086 4.40791 10.5189 4.42044C10.5336 4.45111 10.5405 4.48491 10.5392 4.51886C10.5359 4.54393 10.5307 4.57969 10.5001 4.58337C10.4368 4.5885 10.3738 4.57069 10.3225 4.53324C10.2338 4.47758 10.1722 4.40607 10.1671 4.32903C10.1619 4.25199 10.1671 4.22876 10.184 4.19854C10.201 4.16831 10.2249 4.15025 10.2437 4.11449C10.2517 4.10174 10.2566 4.08725 10.2578 4.07221C10.259 4.05721 10.2566 4.0421 10.2507 4.02824C10.244 4.01751 10.2404 4.00512 10.2404 3.99248C10.2404 3.97984 10.244 3.96745 10.2507 3.95672C10.268 3.93719 10.3465 3.87452 10.3612 3.80928C10.3792 3.75329 10.3856 3.6942 10.38 3.63566C10.3712 3.56931 10.2997 3.29395 10.0878 3.29395C9.87599 3.29395 9.80082 3.49964 9.79787 3.61244C9.79493 3.72523 9.81482 3.75583 9.82366 3.83619C9.83251 3.91655 9.78682 3.94898 9.78682 4.0028C9.78682 4.05662 9.80561 4.13698 9.80193 4.19596C9.79824 4.25494 9.80893 4.3928 9.63465 4.3928C9.46037 4.3928 9.34431 4.32682 9.33989 4.20849C9.33547 4.09016 9.37047 4.085 9.40289 4.08685C9.43532 4.08869 9.48322 4.13514 9.50201 4.18527C9.5208 4.2354 9.53885 4.23466 9.55838 4.23356C9.57791 4.23245 9.63207 4.20849 9.66597 4.08316C9.69986 3.95783 9.71718 3.90438 9.71239 3.82181C9.7076 3.73924 9.6166 3.43366 9.55027 3.43366C9.48395 3.43366 9.49537 3.54424 9.41358 3.54424C9.40087 3.54421 9.3883 3.54159 9.37662 3.53658C9.36494 3.53156 9.35441 3.52423 9.34564 3.51505C9.33687 3.50587 9.33001 3.495 9.32556 3.48309C9.3211 3.47118 9.31907 3.4585 9.31962 3.44582C9.32294 3.31349 9.51601 3.24161 9.51601 3.18079C9.51601 3.11997 9.47916 3.03334 9.40326 3.02708C9.32736 3.02081 9.31115 3.04293 9.31115 3.04293C9.29151 3.00612 9.2641 2.97404 9.23083 2.94893C9.17961 2.91207 9.12656 2.8682 9.0805 2.8682H9.07018C9.02413 2.8682 8.97107 2.91317 8.91985 2.94893C8.88666 2.97372 8.85924 3.00541 8.83953 3.04182C8.83953 3.04182 8.82258 3.02044 8.74742 3.02597C8.67226 3.0315 8.63467 3.11886 8.63467 3.17968C8.63467 3.2405 8.82774 3.31238 8.83106 3.44472C8.83154 3.4574 8.82947 3.47004 8.82498 3.48195C8.82048 3.49382 8.81367 3.50465 8.8049 3.51383C8.79613 3.52301 8.78563 3.53035 8.77398 3.53536C8.76231 3.54041 8.74978 3.54306 8.7371 3.54314C8.65494 3.54314 8.66525 3.43255 8.60041 3.43255C8.53556 3.43255 8.44308 3.73666 8.43829 3.81886C8.4335 3.90106 8.45192 3.95525 8.48434 4.08021C8.51677 4.20517 8.57314 4.22987 8.59193 4.23061C8.61072 4.23134 8.62878 4.23061 8.64831 4.18232C8.66783 4.13403 8.715 4.08574 8.74742 4.0839C8.77984 4.08205 8.81411 4.08758 8.81042 4.20554C8.80674 4.3235 8.69105 4.38985 8.51566 4.38985C8.34028 4.38985 8.3517 4.25199 8.34802 4.19301C8.34433 4.13403 8.36349 4.05367 8.36349 3.99985C8.36349 3.94603 8.31744 3.91397 8.32665 3.83324C8.33586 3.75251 8.35391 3.72044 8.35244 3.60949C8.35097 3.49853 8.27543 3.29469 8.06357 3.29469C7.85171 3.29469 7.78023 3.57005 7.77139 3.6364C7.76583 3.69493 7.7722 3.75402 7.79018 3.81002C7.80566 3.87452 7.88414 3.93719 7.90072 3.95746C7.90713 3.96837 7.91037 3.98083 7.91004 3.99348C7.90971 4.00612 7.90584 4.01843 7.89888 4.02897C7.89298 4.04283 7.89055 4.05795 7.89176 4.07295C7.89298 4.08799 7.89781 4.10248 7.90588 4.11523C7.92467 4.15209 7.94862 4.16868 7.96557 4.19927C7.98251 4.22987 7.98767 4.25272 7.98251 4.32976C7.97736 4.40681 7.91619 4.47721 7.82703 4.53398C7.77574 4.57147 7.7127 4.58927 7.64943 4.58411C7.61885 4.58042 7.61259 4.54467 7.61001 4.5196C7.60894 4.48562 7.61602 4.45189 7.63064 4.42118C7.64096 4.40865 7.68702 4.41233 7.68702 4.41233C7.71612 4.40312 7.76402 4.39427 7.77434 4.21734C7.78797 3.97737 7.52158 3.92687 7.52158 3.92687C7.52158 3.92687 7.5249 3.9147 7.53006 3.88779C7.547 3.82789 7.55448 3.76571 7.55216 3.70349C7.55216 3.56747 7.43094 3.50664 7.34546 3.50849C7.29259 3.50926 7.2406 3.52183 7.19329 3.54535C7.16901 3.55055 7.1437 3.54745 7.12144 3.5365C7.10781 3.52913 7.07391 3.51291 7.07391 3.51291C6.90995 3.49153 6.90958 3.56341 6.90479 3.58295C6.90435 3.59456 6.90804 3.60595 6.91519 3.61513C6.92233 3.62431 6.93247 3.63065 6.94385 3.63308C6.98696 3.64071 7.02804 3.657 7.0647 3.681C7.09381 3.70459 7.08349 3.96299 7.08349 4.05293C7.08349 4.14288 7.09307 4.36183 7.09602 4.38174C7.13231 4.46044 7.18541 4.53025 7.25151 4.58632C7.34657 4.6711 7.53595 4.74593 7.55585 4.76621C7.57574 4.78648 7.57501 4.8602 7.57501 4.8602L7.57759 5.52371L7.512 5.56057L7.52969 5.5661H7.51421C7.35652 5.65236 7.18261 5.85325 6.92874 5.97158C6.76128 6.05673 6.58833 6.1306 6.41107 6.19275C6.26358 6.24992 6.1106 6.29169 5.95456 6.31734C5.71101 6.36084 5.58611 6.39475 5.4612 6.39107C5.3363 6.38738 5.27698 6.35752 5.28214 6.31734C5.28729 6.27716 5.42952 6.20676 5.53231 6.11792C5.63511 6.02908 5.74491 5.88754 5.76075 5.84183C5.7976 5.73345 5.7007 5.75373 5.6738 5.84183C5.66017 5.88717 5.65132 5.89528 5.60785 5.89528C5.56437 5.89528 5.52494 5.79538 5.4542 5.78948C5.38346 5.78359 5.2066 5.80644 5.21324 5.85436C5.21987 5.90228 5.36688 5.92145 5.36062 5.95757C5.35435 5.9937 5.25008 6.10907 5.18155 6.09728C5.11302 6.08548 5.07838 5.94983 5.07396 5.87611C5.06954 5.80239 5.18155 5.60665 5.29172 5.57569C5.40188 5.54472 5.43173 5.53219 5.45936 5.55394C5.48699 5.57569 5.48442 5.65973 5.59458 5.67632C5.59458 5.67632 5.59458 5.67374 5.6388 5.69549C5.68301 5.71724 5.72096 5.75115 5.72538 5.73419C5.7298 5.71724 5.71322 5.61255 5.6539 5.58674C5.60044 5.56267 5.55457 5.52441 5.52126 5.47616C5.49363 5.43524 5.40446 5.2325 5.32746 5.19454C5.25045 5.15657 5.16792 5.15768 5.01427 5.11787C4.86063 5.07805 4.65172 5.00028 4.51613 4.9977C4.38054 4.99512 4.15762 5.14514 4.05114 5.17906C3.94466 5.21297 3.86028 5.22366 3.7398 5.26679C3.61932 5.30991 3.62926 5.45109 3.46788 5.53624C3.35256 5.59559 3.4034 5.60997 3.35329 5.63467C3.30318 5.65936 3.18344 5.66342 3.16907 5.75483C3.1547 5.84625 3.1278 5.95684 3.13701 6.02872C3.14633 6.09403 3.14781 6.16024 3.14143 6.22592C3.1348 6.26905 3.09575 6.26684 3.10717 6.38001C3.11859 6.49317 3.16207 6.61998 3.30687 6.69702C3.45167 6.77406 3.59795 6.79802 3.67532 6.9016C3.75269 7.00518 3.8286 7.09918 3.86655 7.19981C3.9045 7.30044 3.9185 7.32919 3.91629 7.51203C3.91408 7.69486 3.90007 8.06716 3.87723 8.22346C3.85439 8.37975 3.80833 8.71888 3.77149 8.92788C3.73464 9.13689 3.61121 9.5936 3.56515 9.76685C3.5191 9.9401 3.51025 10.2719 3.47341 10.399C3.43656 10.5262 3.35808 10.6788 3.38682 10.7356C3.36324 10.8045 3.48594 10.8557 3.64474 10.9225C3.73722 10.9862 4.00435 11.1635 4.0843 11.2863C4.21915 11.4934 4.26595 11.4116 4.38459 11.5288C4.43002 11.5871 4.4543 11.6591 4.45349 11.733C4.46148 11.8631 4.483 11.9919 4.5176 12.1175C4.61634 12.4548 4.65687 12.5455 4.71398 12.5082C4.77883 12.4747 4.66019 12.2134 4.63035 12.161C4.6005 12.1087 4.58097 12.1031 4.57655 12.0069C4.57213 11.9107 4.6134 11.8558 4.62556 11.764C4.63771 11.6722 4.55444 11.5886 4.55444 11.5406C4.55444 11.4927 4.6005 11.5285 4.62334 11.5454C4.64619 11.5624 4.81383 11.6848 4.90558 11.7161C4.99732 11.7474 5.02164 11.7751 5.03343 11.8134C5.04522 11.8517 5.00174 11.9505 5.06622 12.1378C5.1307 12.325 5.07433 12.4367 5.10307 12.5433C5.10307 12.6491 4.95016 12.7585 4.95127 12.7869C4.89895 12.7869 4.7932 12.6516 4.69003 12.659C4.58687 12.6664 4.57545 12.7327 4.58687 12.7696C4.59829 12.8065 4.72762 12.8002 4.72098 12.8363C4.71435 12.8724 4.64729 12.9141 4.67088 12.955C4.69446 12.9959 4.78141 12.9425 4.81457 12.9473C4.84773 12.9521 4.80831 13.0343 4.77367 13.0803C4.73904 13.1264 4.70772 13.174 4.75378 13.1839C4.79983 13.1939 4.84184 13.1342 4.87868 13.1471C4.91553 13.16 4.90116 13.1953 4.8621 13.2746C4.82305 13.3539 4.71472 13.4644 4.6963 13.6277C4.6425 13.8622 4.88531 14.2794 4.90963 14.2312C4.85952 14.024 4.861 13.9363 4.88974 13.6782C4.94095 13.2186 5.15428 12.6553 5.37241 12.3626C5.40704 12.2491 5.46784 12.0475 5.46083 11.9502C5.44868 11.785 5.27366 11.5867 5.1775 11.5653C5.03306 11.5329 4.88273 11.5285 4.81826 11.5089C4.75378 11.4894 4.55444 11.4393 4.56034 11.3958C4.56624 11.3523 5.32119 11.1127 5.35509 11.0205C5.38899 10.9284 5.33298 10.5852 5.27919 10.3393C5.25155 10.0813 5.22466 9.72299 5.18339 9.29392C5.14212 8.86485 5.12407 8.14236 5.10675 7.9223C5.08944 7.70223 5.01243 7.12166 5.0968 7.059C5.21066 6.93772 5.77844 7.16479 5.87055 7.20866C5.88603 7.2164 5.6749 7.45194 5.68964 7.40697C5.70475 7.43572 12.5926 7.45526 12.5896 7.41545C12.5896 7.41545 12.5428 7.30228 12.4496 7.27058C12.3564 7.23888 12.3803 7.2492 12.4389 7.23372C12.4975 7.21824 13.1117 6.96353 13.1099 7.08959C13.1581 7.10766 13.1467 7.16332 13.1445 7.22303C13.1423 7.28275 13.1338 7.94036 13.1032 8.2183C13.0727 8.49623 13.0616 9.12325 13.0343 9.40082C13.0071 9.67838 12.9758 10.2118 12.9654 10.4141C12.9551 10.6165 12.8918 10.796 13.1169 11.0039C13.342 11.2118 13.6718 11.2841 13.6611 11.346C13.6504 11.4079 13.4507 11.4798 13.2993 11.5016C13.0281 11.4098 12.6851 11.6715 12.7587 12.1518C12.7506 12.1717 12.7392 12.5418 12.9352 12.9023C13.0336 12.983 13.2182 13.2341 13.3037 13.6082C13.3427 13.7778 13.3232 13.972 13.3225 14.2087C13.3416 14.2164 13.4721 13.8482 13.4699 13.6852C13.5185 13.3505 13.171 13.1533 13.15 13.1095C13.181 13.0483 13.3273 13.1924 13.3479 13.153C13.3685 13.1135 13.2223 12.9473 13.2447 12.9204C13.2672 12.8935 13.3722 12.9723 13.398 12.9473C13.4238 12.9222 13.3361 12.8463 13.3737 12.8031C13.4113 12.76 13.5288 12.7707 13.496 12.6948C13.4632 12.6188 13.4433 12.6155 13.4083 12.6155C13.2241 12.6155 13.0789 12.9609 13.0358 12.9196C12.9927 12.8783 12.9953 12.8665 12.9916 12.7781C12.9879 12.6896 12.9747 12.2071 12.985 12.1691C12.9953 12.1312 13.1511 12.0427 13.1622 12.015C13.1604 11.9089 13.0856 11.7504 13.1069 11.7279C13.1283 11.7054 13.3648 11.6855 13.4385 11.6239C13.5122 11.5624 13.5918 11.4835 13.6191 11.4835C13.6463 11.4835 13.6607 11.4673 13.6607 11.496C13.6607 11.5248 13.566 11.6564 13.5778 11.7017C13.5896 11.7471 13.702 11.8709 13.6931 11.9339C13.6843 11.997 13.6106 12.0604 13.5609 12.1846C13.4927 12.3121 13.4669 12.4025 13.5211 12.4544C13.517 12.4544 13.6147 12.5473 13.6795 12.2134C13.7289 12.0989 13.7546 11.9757 13.755 11.851C13.762 11.6999 13.7499 11.5845 13.7654 11.5285C13.7808 11.4724 13.8276 11.5056 13.849 11.5064C13.8704 11.5071 13.8825 11.4547 13.9135 11.4437C13.9135 11.4437 14.0609 11.3924 14.1132 11.2793C14.1438 11.2252 14.1854 11.178 14.2351 11.1407C14.3368 11.0563 14.4849 10.9099 14.5708 10.865C14.6566 10.82 14.8118 10.7964 14.8136 10.73C14.8154 10.6637 14.7635 10.3854 14.7344 10.1834C14.7053 9.98139 14.6566 9.7886 14.6238 9.62272C14.5911 9.45684 14.4949 9.14868 14.4603 8.94521C14.4256 8.74173 14.3928 8.63262 14.3696 8.36758C14.3464 8.10255 14.3059 7.67717 14.2992 7.50576C14.2926 7.33435 14.2889 7.30929 14.3147 7.23372C14.3405 7.15816 14.4404 6.97016 14.5557 6.87285C14.6698 6.77605 14.7995 6.69927 14.9392 6.64578C15.0734 6.59528 15.0907 6.56653 15.101 6.44562C15.1113 6.32471 15.1061 6.23293 15.0822 6.17874C15.0583 6.12456 15.0767 5.94467 15.0804 5.89233C15.084 5.83998 15.0579 5.69954 14.972 5.65088C14.8862 5.60223 14.8773 5.63098 14.8497 5.61402C14.8048 5.58037 14.7633 5.54233 14.7259 5.50049C14.648 5.40671 14.5634 5.31876 14.4728 5.2373C14.3902 5.17242 14.3254 5.1938 14.2458 5.18127C14.1662 5.16873 14.01 5.08211 13.9533 5.0552C13.8646 5.01793 13.7703 4.99589 13.6743 4.98996C13.5964 4.98701 13.5185 4.99685 13.4437 5.01908C13.3494 5.04599 13.2149 5.08764 13.1187 5.10902C13.0226 5.1304 12.9485 5.13445 12.8829 5.17758C12.8173 5.22071 12.7418 5.37774 12.716 5.42455C12.6902 5.47137 12.723 5.48427 12.6246 5.52187C12.5263 5.55947 12.5403 5.62176 12.5204 5.64462C12.5005 5.66747 12.4747 5.69327 12.5204 5.70065C12.5494 5.70297 12.5786 5.69899 12.606 5.689C12.6334 5.67901 12.6584 5.66323 12.6792 5.64277C12.7204 5.59965 12.7687 5.5274 12.8461 5.52555C12.8796 5.52522 12.9126 5.53289 12.9426 5.54797C12.9725 5.56304 12.9984 5.58505 13.0181 5.61218C13.0646 5.66452 13.1147 5.69696 13.1265 5.77621C13.1383 5.85547 13.1559 5.8868 13.1405 5.92771C13.125 5.96863 13.1161 6.04678 13.0834 6.05562C13.0506 6.06447 12.8545 5.97822 12.8623 5.94725C12.87 5.91629 13.0189 5.89712 13.0137 5.84478C13.0086 5.79243 12.9481 5.76884 12.8155 5.77105C12.6828 5.77326 12.6659 5.85215 12.6213 5.8739C12.5767 5.89565 12.5369 5.81971 12.5078 5.78211C12.4787 5.74451 12.4857 5.71871 12.4636 5.73124C12.4415 5.74378 12.4504 5.82229 12.5185 5.90928C12.5867 5.99628 12.9113 6.22961 12.9094 6.26647C12.9076 6.30333 12.8218 6.33135 12.6652 6.32951C12.5086 6.32766 12.3435 6.33688 12.1401 6.27385C11.9367 6.21081 11.6947 6.14188 11.5897 6.10797C11.4846 6.07406 11.0609 5.8868 10.9961 5.85547C10.8551 5.77883 10.7228 5.68727 10.6015 5.58232L10.621 5.5779H10.5974C10.5853 5.56795 10.5742 5.55836 10.5646 5.54988L10.5716 5.54767L10.5746 4.85762C10.5746 4.85762 10.5746 4.7839 10.5937 4.76363C10.6129 4.74335 10.803 4.66852 10.8981 4.58374C10.9643 4.52782 11.0174 4.45797 11.0536 4.37916C11.0569 4.35925 11.0661 4.13993 11.0661 4.05035C11.0661 3.96078 11.0558 3.70201 11.0849 3.67842C11.1215 3.65439 11.1626 3.63806 11.2057 3.6305C11.2171 3.62814 11.2273 3.6218 11.2345 3.61262C11.2416 3.60344 11.2453 3.59202 11.2448 3.58037C11.24 3.56083 11.24 3.48895 11.076 3.51033V3.51217ZM10.3292 4.79938C10.2164 4.79938 9.90399 4.62023 9.07645 4.62908C8.2478 4.62023 7.93425 4.79938 7.82371 4.79938C7.71318 4.79938 7.6837 4.72934 7.69181 4.70907C7.69991 4.6888 7.72865 4.71681 7.76918 4.72234C7.80971 4.72787 7.8834 4.67221 7.97404 4.58079C8.06468 4.48938 8.08458 4.35962 8.08458 4.26599C8.08458 4.17237 8.03999 4.14251 8.02968 4.13514C8.01936 4.12776 8.02783 4.05625 8.04699 4.05809C8.06615 4.05994 8.09452 4.11744 8.11331 4.14398C8.13211 4.17052 8.16306 4.23356 8.15274 4.35004C8.14242 4.46652 8.06726 4.58448 8.05547 4.60807C8.04368 4.63166 8.0621 4.64714 8.08458 4.65267C8.10705 4.6582 8.1509 4.60991 8.16121 4.58816C8.17153 4.56642 8.17337 4.49712 8.21648 4.49712C8.25959 4.49712 8.38081 4.62761 8.40292 4.62761C8.41228 4.6279 8.42152 4.62536 8.42941 4.62027C8.43729 4.61522 8.44348 4.60789 8.44713 4.59922C8.45181 4.592 8.45432 4.58352 8.45432 4.57489C8.45432 4.56627 8.45181 4.55779 8.44713 4.55057C8.43534 4.53103 8.33107 4.48827 8.28243 4.4245C8.2338 4.36073 8.23896 4.23392 8.23564 4.2177C8.23232 4.20149 8.17558 4.2107 8.17558 4.18748C8.17558 4.16426 8.19953 4.15504 8.21243 4.14177C8.22532 4.1285 8.23048 4.01202 8.25296 4.01386C8.27543 4.0157 8.2817 4.09238 8.2817 4.20886C8.2817 4.32534 8.38597 4.48274 8.59783 4.47537C8.80969 4.468 8.92059 4.24277 8.92391 4.13735C8.92247 4.09164 8.90519 4.04788 8.87501 4.01357C8.8448 3.97925 8.80357 3.95654 8.75847 3.94935C8.69694 3.94935 8.63025 4.04409 8.61478 4.0533C8.5993 4.06252 8.5842 4.04409 8.5654 4.02971C8.54661 4.01533 8.57056 3.73482 8.57056 3.70754C8.57056 3.68026 8.57056 3.65778 8.60962 3.6504C8.64867 3.64303 8.75 3.74883 8.77874 3.74883C8.80748 3.74883 8.83695 3.70422 8.85243 3.63087C8.8679 3.55751 8.96296 3.46425 8.99133 3.44656C9.01573 3.43325 9.0431 3.42629 9.07092 3.42629C9.0987 3.42629 9.12608 3.43325 9.15051 3.44656C9.18035 3.46352 9.27246 3.55714 9.28941 3.63087C9.30636 3.70459 9.33584 3.74883 9.3631 3.74883C9.39037 3.74883 9.49464 3.6434 9.53222 3.6504C9.5698 3.65741 9.57164 3.681 9.57164 3.70754C9.57164 3.73408 9.59559 4.0157 9.5768 4.02971C9.55801 4.04372 9.54254 4.06215 9.52743 4.0533C9.51232 4.04446 9.44527 3.94935 9.38373 3.94935C9.33856 3.95658 9.29737 3.97932 9.26712 4.0136C9.23687 4.04788 9.21948 4.09164 9.21793 4.13735C9.22125 4.24277 9.33252 4.4691 9.54438 4.47537C9.75624 4.48163 9.86051 4.32534 9.86051 4.20886C9.86051 4.09238 9.86714 4.0157 9.88962 4.01386C9.91209 4.01202 9.91578 4.1285 9.92978 4.14177C9.94378 4.15504 9.96662 4.16426 9.96662 4.18748C9.96662 4.2107 9.91025 4.20185 9.90693 4.2177C9.90362 4.23356 9.90693 4.3611 9.8594 4.4245C9.81187 4.4879 9.70687 4.53103 9.69508 4.55057C9.69036 4.55779 9.68785 4.56627 9.68785 4.57489C9.68785 4.58352 9.69036 4.592 9.69508 4.59922C9.69869 4.60789 9.70487 4.61522 9.71276 4.62027C9.72064 4.62536 9.72989 4.6279 9.73929 4.62761C9.7614 4.62761 9.88114 4.49712 9.92536 4.49712C9.96957 4.49712 9.9751 4.56678 9.98541 4.58816C9.99573 4.60954 10.0399 4.6582 10.0621 4.65267C10.0842 4.64714 10.1033 4.63313 10.0912 4.60807C10.079 4.583 10.0042 4.46468 9.99389 4.35004C9.98357 4.2354 10.0145 4.17089 10.0333 4.14398C10.0521 4.11707 10.0808 4.05994 10.0996 4.05809C10.1184 4.05625 10.1273 4.12813 10.117 4.13514C10.1066 4.14214 10.0621 4.172 10.0621 4.26599C10.0621 4.35999 10.0808 4.48974 10.1726 4.58079C10.2643 4.67184 10.3365 4.72824 10.3774 4.72234C10.4183 4.71644 10.4467 4.68917 10.4548 4.70907C10.4629 4.72898 10.4357 4.79938 10.3229 4.79938H10.3292ZM2.65287 14.1799C2.49185 13.8659 2.5357 13.3933 2.50033 13.4335C2.36988 13.5809 2.29251 13.4383 2.23282 13.3177C2.20555 13.2635 2.17939 13.2071 2.15397 13.1456C2.30135 12.5263 2.60018 12.0438 2.87873 11.4256C3.04711 11.0515 2.79104 10.5575 2.90894 10.1882C2.33414 10.5078 1.97085 10.8487 1.77004 11.2019C1.77348 11.1527 1.77864 11.1081 1.78552 11.0681C3.05816 9.14536 1.19158 9.6946 2.26561 8.01298C0.593211 8.95368 0.973453 9.86159 1.28958 10.6394C1.33973 10.7777 1.38072 10.9192 1.41228 11.0629C1.36758 11.0218 1.33118 10.9725 1.30506 10.9177C1.15178 10.5612 0.626372 10.4687 0.629319 10.9704C1.20079 10.7315 1.46939 11.4057 1.56997 11.9502C1.57317 12.1433 1.60726 12.3347 1.67093 12.5171C1.86031 13.3808 2.13702 14.031 2.17092 13.8924C2.20224 13.9293 2.14439 13.9293 2.1256 13.9215C1.85221 13.8552 1.77815 13.3974 1.73173 13.307C1.49407 12.8577 1.68677 12.1643 0.914132 11.8731C0.751645 11.8259 0.444357 11.2985 0.465727 11.2162C0.463516 11.2631 0.275238 11.6549 0.159176 11.886C-0.172431 12.7423 -0.0744226 13.2388 1.26269 13.7166C1.62091 13.9481 2.00405 14.1385 2.40489 14.2842C2.35367 14.2842 1.29953 14.4851 1.53276 14.1106C1.54455 13.8662 0.847074 13.7641 0.887972 13.7516C0.568893 14.9621 2.26782 14.2809 2.92626 14.8047C2.92626 14.8047 2.7483 14.3443 2.65029 14.1781L2.65287 14.1799ZM5.51573 17.9306C5.4178 17.8845 5.32628 17.8259 5.24345 17.7562C5.13044 17.6602 5.02971 17.5507 4.94353 17.43C4.94353 17.43 4.65429 16.9729 4.56587 16.5545C4.55113 16.4974 4.34885 15.8833 4.42917 15.7841C5.13181 12.9458 3.74127 14.254 3.5121 12.3862C3.58579 12.3862 2.99626 13.4641 3.07438 14.0793V14.0992C2.57144 13.8445 2.84409 13.0726 3.1138 12.8109C3.30871 12.6373 3.23428 12.4791 3.04011 12.5211C2.90341 12.5495 2.80909 12.6686 2.72508 12.7932C2.43952 13.2164 2.5217 14.1036 2.9771 14.254C3.01727 14.2765 3.05411 14.3008 3.08764 14.3218C3.00142 14.9271 3.6709 15.8085 4.20699 16.5335C4.30427 16.6684 4.37096 16.8472 4.33632 16.8517C4.30169 16.8561 4.21584 16.6205 4.13257 16.5291C4.0493 16.4377 3.81202 16.1974 3.7118 16.0846C3.15359 15.3149 2.98226 14.7944 2.50364 14.6971C1.96495 14.5865 1.6643 14.7509 0.876918 14.7011C0.683482 14.689 0.626372 14.6724 0.496308 14.6576C1.02909 15.0395 1.01877 15.0937 1.38464 15.6946C1.85147 16.4617 2.40746 16.3986 3.30724 16.4499C3.63884 16.4889 3.8437 16.7245 3.95129 16.8421C4.05888 16.9597 4.33043 17.3828 4.33043 17.3828C4.15265 17.4134 3.9724 17.427 3.79212 17.4234C3.64514 17.3916 3.49574 17.3724 3.34556 17.3659C3.34556 17.284 3.64658 17.374 3.92808 17.3766C4.03861 17.3788 4.15873 17.3795 4.12262 17.3434C4.07841 17.2999 3.99514 17.235 3.9255 17.235C3.85586 17.235 3.70222 17.2431 3.59389 17.235C3.43166 17.2277 3.26918 17.2292 3.10717 17.2394C3.0578 17.2483 3.05301 17.2177 3.0928 17.2048C3.13259 17.1919 3.5202 17.1871 3.61416 17.1871C3.90081 17.1871 3.90892 17.1897 3.90413 17.1871C3.94212 17.1887 3.98003 17.1925 4.01761 17.1985C4.03972 17.1985 4.06919 17.2129 4.07509 17.2048C4.08098 17.1967 3.94834 17.0872 3.79617 17.0677C3.644 17.0481 3.36066 17.054 3.16207 17.0607C2.96347 17.0673 2.89641 17.078 2.7774 17.0736C2.65839 17.0691 2.61123 17.054 2.5696 17.0345C2.52796 17.0149 2.45905 16.9917 2.46679 16.9762C2.47454 16.9608 2.71882 17.0061 3.05337 16.9884C3.26966 16.977 3.67495 16.9947 3.67495 16.9947C3.67495 16.9947 3.31608 16.5955 2.81425 16.5955C2.3124 16.5955 1.86031 16.8594 1.85958 16.9195C1.85884 16.9796 2.14955 17.6198 2.65913 17.6198C3.1687 17.6198 3.29618 17.5159 3.70111 17.5159C4.10604 17.5159 4.52865 17.7529 4.70256 17.8019C4.86615 17.8819 5.31566 18.0047 5.42731 18.0047C5.53895 18.0047 5.54337 17.9372 5.51573 17.931V17.9306ZM14.7646 6.63509C14.6622 6.64541 14.4698 6.60413 14.4698 6.56616C14.4698 6.52819 14.6964 6.43567 14.7211 6.38185C14.7458 6.32803 14.7679 6.26868 14.7307 6.265C14.6935 6.26131 14.5704 6.33356 14.4728 6.32693C14.3751 6.32029 14.2827 6.19496 14.2517 6.18685C14.2517 6.18685 14.2569 6.19975 14.1946 6.21339C14.1323 6.22703 13.9993 6.25025 13.94 6.2204C13.8807 6.19054 13.8096 6.0759 13.7882 6.0383C13.7785 6.01567 13.7671 5.99384 13.7539 5.97305C13.7259 5.93177 13.7429 5.79206 13.7429 5.79206C13.7429 5.79206 13.6357 5.96494 13.5738 5.94504C13.5548 5.93689 13.5381 5.92421 13.5253 5.90807C13.5124 5.89192 13.5038 5.87283 13.5001 5.85252C13.4968 5.85893 13.4923 5.86461 13.4867 5.86918C13.4811 5.87375 13.4747 5.8771 13.4678 5.87902C13.4608 5.88097 13.4536 5.88145 13.4464 5.88046C13.4393 5.87943 13.4325 5.87696 13.4264 5.87316C13.3766 5.84588 13.3192 5.75336 13.2672 5.69291C13.2153 5.63245 13.167 5.55136 13.129 5.52998C13.0911 5.5086 12.964 5.50049 12.9448 5.48574C12.9257 5.471 12.9474 5.32687 13.0716 5.32355C13.1509 5.32068 13.2302 5.32871 13.3074 5.34751C13.363 5.35783 13.6147 5.11049 13.7864 5.12413C13.9581 5.13777 14.0564 5.3888 14.1681 5.39912C14.2797 5.40944 14.4227 5.35525 14.4536 5.37848C14.4846 5.4017 14.5966 5.59154 14.6305 5.60518C14.6644 5.61881 14.6349 5.67079 14.6544 5.69291C14.674 5.71502 14.723 5.72092 14.7734 5.75631C14.8239 5.7917 14.8696 5.82155 14.8913 5.88348C14.9112 5.94696 14.9144 6.01452 14.9006 6.07958C14.8884 6.13119 14.8604 6.13783 14.8667 6.19275C14.8729 6.24767 14.9473 6.32693 14.9378 6.38517C14.9282 6.44341 14.8696 6.62587 14.7672 6.63619L14.7646 6.63509ZM9.28978 16.6132C9.29936 16.6603 9.34836 16.681 9.397 16.681C9.46553 16.681 9.51859 16.6338 9.52743 16.4856C9.50919 16.5077 9.48624 16.5253 9.4603 16.5373C9.43436 16.5493 9.40603 16.5553 9.37747 16.5549C9.23746 16.5549 9.13798 16.4484 9.13798 16.2925C9.13798 16.173 9.18919 16.0031 9.39884 16.0031C9.46664 16.0031 9.67334 16.0108 9.67334 16.3916C9.67334 16.4738 9.66339 16.8148 9.39 16.8148C9.21904 16.8148 9.16893 16.6931 9.15124 16.6132H9.28978ZM8.62288 16.6309C8.63246 16.6777 8.68147 16.6983 8.72937 16.6983C8.7979 16.6983 8.85059 16.6511 8.85906 16.504C8.84115 16.5258 8.81864 16.5433 8.79314 16.5552C8.76765 16.5671 8.73979 16.5732 8.71168 16.573C8.5724 16.573 8.47329 16.4668 8.47329 16.312C8.47329 16.1929 8.52414 16.0237 8.73121 16.0237C8.79827 16.0237 9.00423 16.0315 9.00423 16.4104C9.00423 16.4923 8.99428 16.8314 8.72236 16.8314C8.55214 16.8314 8.50129 16.7105 8.48508 16.6309H8.62288ZM12.7005 18.0006C12.8189 17.9474 12.9285 17.8764 13.0255 17.7901C13.1252 17.6942 13.2128 17.5863 13.2864 17.4691C13.2864 17.4691 13.569 16.9899 13.6548 16.5649C13.6696 16.507 13.8497 15.856 13.7701 15.7539C13.0752 12.8676 14.4503 14.1984 14.6769 12.2996C14.6032 12.2996 15.1879 13.3955 15.1095 14.0207C15.1095 14.0273 15.1095 14.0343 15.1095 14.041C15.6065 13.7829 15.3372 12.9974 15.0704 12.7313C14.8777 12.5547 14.9514 12.3958 15.1441 12.4364C15.279 12.4655 15.3722 12.5864 15.4554 12.7132C15.7377 13.1434 15.6566 14.0454 15.2064 14.198C15.1666 14.2208 15.1301 14.2455 15.0988 14.2669C15.1843 14.8825 14.5222 15.7782 13.9934 16.5155C13.8973 16.653 13.8313 16.8343 13.8659 16.8391C13.9006 16.8439 14.0115 16.6441 14.0936 16.5509C14.1758 16.4576 14.384 16.1745 14.4831 16.0591C15.0358 15.2769 15.2045 14.7487 15.6776 14.6488C16.2104 14.5364 16.5077 14.7034 17.2859 14.6529C17.4771 14.6407 17.5339 14.6237 17.6625 14.609C17.133 14.999 17.1429 15.0513 16.7811 15.6636C16.3224 16.444 15.7697 16.3798 14.881 16.4322C14.5516 16.472 14.3505 16.7112 14.2443 16.831C14.1382 16.9508 13.8693 17.3802 13.8693 17.3802C14.0449 17.4116 14.2232 17.4256 14.4017 17.4219C14.5471 17.3895 14.695 17.3699 14.8438 17.3633C14.8438 17.28 14.5461 17.3714 14.2679 17.374C14.1574 17.3762 14.0399 17.3773 14.0756 17.3404C14.1191 17.2962 14.2016 17.2299 14.2705 17.2299C14.3394 17.2299 14.4916 17.2383 14.5992 17.2299C14.7594 17.2224 14.9199 17.224 15.08 17.2346C15.1294 17.2431 15.1338 17.2125 15.0944 17.1978C15.0549 17.183 14.6721 17.1797 14.5785 17.1797C14.2952 17.1797 14.2867 17.1823 14.2919 17.1797C14.2548 17.1814 14.2179 17.1852 14.1813 17.1911C14.1592 17.1911 14.1301 17.2059 14.1242 17.1978C14.1183 17.1897 14.2495 17.078 14.4002 17.0581C14.5509 17.0382 14.8305 17.0444 15.0266 17.0511C15.2226 17.0577 15.2893 17.0688 15.4072 17.0643C15.5251 17.0599 15.5711 17.0444 15.6128 17.0245C15.6544 17.0046 15.7233 16.9814 15.7141 16.9652C15.7049 16.949 15.465 16.9958 15.1342 16.9777C14.9204 16.9659 14.5196 16.984 14.5196 16.984C14.5196 16.984 14.8729 16.5785 15.37 16.5785C15.867 16.5785 16.3128 16.8469 16.3139 16.9103C16.315 16.9737 16.0276 17.6198 15.5218 17.6198C15.0159 17.6198 14.8921 17.5137 14.4901 17.5137C14.0881 17.5137 13.6718 17.7444 13.4997 17.7942C13.3276 17.844 12.9069 18.0482 12.7963 18.0482C12.6858 18.0482 12.6714 18.0054 12.6991 17.9992L12.7005 18.0006ZM15.5295 14.1246C15.6887 13.805 15.6452 13.3251 15.6806 13.3656C15.8092 13.5131 15.8858 13.3708 15.9447 13.2484C15.9718 13.1927 15.9977 13.1342 16.0225 13.073C15.8751 12.4437 15.5803 11.9531 15.3062 11.3246C15.1397 10.9446 15.3928 10.4422 15.276 10.0665C15.8445 10.3917 16.2038 10.7382 16.4024 11.0987C16.399 11.0504 16.3939 11.005 16.3869 10.963C15.1279 9.00935 16.9727 9.56743 15.9108 7.85705C17.5645 8.81545 17.1883 9.73699 16.8766 10.5269C16.8269 10.6677 16.7864 10.8115 16.7553 10.9575C16.7999 10.9156 16.8359 10.8656 16.8615 10.81C17.0121 10.4477 17.5335 10.3526 17.5287 10.8635C16.9639 10.6209 16.6982 11.3058 16.5987 11.8587C16.5956 12.0551 16.5619 12.2497 16.4989 12.4356C16.3117 13.3129 16.0369 13.9746 16.0048 13.8334C15.9735 13.8703 16.0306 13.8703 16.0494 13.8629C16.3195 13.7958 16.3928 13.3303 16.4377 13.24C16.6724 12.7829 16.4819 12.0784 17.2457 11.7824C17.4068 11.7342 17.7107 11.1978 17.6879 11.1145C17.6901 11.1621 17.8762 11.5605 17.9911 11.7953C18.3183 12.6656 18.2218 13.1703 16.8998 13.6561C16.5466 13.8909 16.1679 14.0846 15.7708 14.2334C15.8213 14.2334 16.8622 14.4376 16.633 14.0568C16.6212 13.8084 17.311 13.7044 17.2704 13.6915C17.5862 14.9223 15.9072 14.2297 15.255 14.7623C15.255 14.7623 15.4311 14.2942 15.528 14.1257L15.5295 14.1246ZM9.00018 7.68933H12.859L12.8405 9.44468C12.5384 9.65664 12.3984 11.3003 12.433 11.3685C12.4434 11.3888 12.3616 11.5111 12.5193 12.2134C12.5428 12.3169 12.7186 12.8507 12.8977 13.3089C13.5391 14.9507 12.9632 16.7256 11.1475 17.1333C10.9756 17.1719 10.7931 17.2087 10.6 17.2439C9.82403 17.3817 9.16045 17.9855 9.15382 17.9914L9.06392 18.0589L8.97733 17.9885L8.94822 17.963V17.9575C8.73379 17.785 8.20174 17.4009 7.60264 17.294C7.41005 17.2601 7.22756 17.2232 7.05512 17.1834C5.2394 16.779 4.66314 15.0027 5.30572 13.3623C5.48478 12.9041 5.66053 12.3704 5.68375 12.2672C5.84181 11.565 5.76002 11.4422 5.77033 11.4219C5.80497 11.3537 5.68338 9.62493 5.38162 9.41261V7.69523L9.00018 7.68933ZM9.05471 17.7337L9.06502 17.7426C9.26141 17.5778 9.85646 17.1211 10.5598 16.9965C12.3605 16.6769 13.3029 15.3241 12.6401 13.3546C12.6401 13.3575 12.4305 12.8109 12.4294 12.8087C12.2661 12.4891 12.1427 11.8853 12.1394 11.4337C12.1393 11.274 12.1508 11.1145 12.1736 10.9564C12.1972 10.7875 12.2982 9.65958 12.5789 9.41409L5.66311 9.42072C5.94277 9.66622 6.00577 10.841 6.02899 11.0098C6.05212 11.1679 6.06369 11.3274 6.06362 11.4872C6.0603 11.9387 5.93687 12.5425 5.77328 12.8625C5.77328 12.8643 5.56326 13.4114 5.56253 13.408C4.89931 15.3776 5.84218 16.7307 7.64317 17.05C8.26622 17.1606 8.80453 17.5317 9.05581 17.7297V17.7337H9.05471ZM6.89006 0.39958L7.0297 0.861824H7.47958L7.11481 1.14787L7.25409 1.60975L6.89006 1.32407L6.52529 1.60975L6.66456 1.14787L6.30053 0.861824H6.75005L6.89006 0.39958ZM9.08603 0L9.2253 0.462245H9.67628L9.31115 0.747922L9.45079 1.21017L9.08603 0.924489L8.72089 1.21017L8.86017 0.747922L8.4954 0.462245H8.94638L9.08603 0ZM11.1567 0.444551L11.296 0.907164H11.7473L11.3822 1.19247L11.5215 1.65509L11.1567 1.36941L10.792 1.65509L10.9312 1.19247L10.5661 0.907164H11.0167L11.156 0.444551H11.1567ZM13.1128 1.53787L13.2525 2.00011H13.7035L13.338 2.28542L13.4772 2.74766L13.1121 2.46199L12.7484 2.74803L12.8873 2.28542L12.5226 1.99974H12.9736L13.1128 1.5375V1.53787ZM14.2244 5.65273C14.1633 5.61587 14.1633 5.49422 14.1261 5.49275C14.0981 5.49275 14.1088 5.54841 14.0936 5.58269C14.0785 5.61697 14.0461 5.62213 14.0281 5.68148C14.01 5.74083 13.9761 5.91924 13.9993 5.93177C14.0225 5.9443 14.094 5.91739 14.1662 5.87906C14.2384 5.84072 14.3987 5.77548 14.4054 5.75115C14.412 5.72682 14.2856 5.68996 14.2244 5.65273ZM3.79212 6.32398C3.66795 6.36084 3.48483 6.21339 3.44541 6.26721C3.43818 6.28741 3.43715 6.30931 3.44238 6.3301C3.44765 6.35092 3.45893 6.36969 3.47488 6.38406C3.53052 6.42756 3.74311 6.5046 3.73685 6.53483C3.73059 6.56505 3.49441 6.64541 3.43546 6.62845C3.37651 6.6115 3.25565 6.53483 3.24902 6.41097C3.24239 6.28712 3.28845 6.29375 3.30797 6.21708C3.3275 6.14041 3.19744 5.9996 3.29139 5.8691C3.38535 5.73862 3.48151 5.72829 3.54047 5.66821C3.59942 5.60812 3.62558 5.471 3.72469 5.41018C3.82381 5.34936 3.93397 5.43709 4.06514 5.40023C4.19631 5.36336 4.22542 5.13593 4.43838 5.13925C4.65135 5.14256 4.82747 5.2631 4.89637 5.31655C4.96527 5.37 5.01096 5.31987 5.05001 5.31655C5.08907 5.31323 5.19408 5.29333 5.23424 5.33019C5.2744 5.36705 5.36835 5.48058 5.36835 5.48058C5.36835 5.48058 5.22429 5.47727 5.13918 5.5473C5.05561 5.62176 4.98141 5.70603 4.91811 5.79833C4.88863 5.84514 4.88531 5.88201 4.84626 5.88532C4.8072 5.88864 4.76115 5.81529 4.73167 5.82192C4.70219 5.82856 4.77441 5.91887 4.72172 5.9255C4.66903 5.93214 4.6694 5.969 4.62998 5.9255C4.59055 5.88201 4.52534 5.80165 4.50581 5.80165C4.48628 5.80165 4.53528 5.90892 4.49918 5.96568C4.4428 6.03815 4.38124 6.10638 4.31495 6.1699C4.23315 6.2532 4.06956 6.22998 3.95829 6.17653C3.84702 6.12308 3.92697 6.2838 3.79101 6.32398H3.79212ZM3.85365 6.92519C3.84274 6.91763 3.83405 6.90728 3.82856 6.89522C3.82303 6.88313 3.8209 6.86982 3.82233 6.85663C3.82233 6.80318 3.88902 6.69333 4.01466 6.65205C4.15552 6.59915 4.28949 6.52948 4.4137 6.44451C4.54339 6.36084 4.66351 6.25394 4.7652 6.20639C4.86689 6.15884 4.95716 6.10944 4.99732 6.12566C5.03748 6.14188 5.06328 6.21376 5.06475 6.2521C5.06622 6.29043 4.93505 6.40286 4.8212 6.45815C4.70735 6.51345 4.59645 6.51713 4.54192 6.54588C4.48739 6.57464 4.44501 6.62772 4.39196 6.67158C4.3389 6.71545 4.29358 6.70033 4.22321 6.72098C4.15283 6.74162 4.08283 6.74789 4.05814 6.78217C4.03345 6.81645 3.93471 6.84704 3.91739 6.85589C3.90008 6.86474 3.8706 6.92261 3.85365 6.92445V6.92519ZM4.46933 7.36753C4.46233 7.38928 4.42107 7.38928 4.39343 7.37859C4.3658 7.3679 4.30942 7.27021 4.30242 7.24146C4.2836 7.19649 4.25397 7.15687 4.21621 7.12609C4.19041 7.11171 4.09572 7.10987 4.06514 7.0977C4.06054 7.09077 4.05766 7.08285 4.0567 7.07459C4.05575 7.06633 4.05674 7.05797 4.05961 7.05015C4.0703 7.02508 4.07693 7.04315 4.12667 7.05752C4.16595 7.0684 4.20725 7.06965 4.24716 7.06121C4.29027 7.05568 4.27295 7.02435 4.29395 7.00002C4.31495 6.97569 4.30427 6.97827 4.28879 6.93846C4.27332 6.89865 4.29542 6.90602 4.31606 6.87543C4.32818 6.85442 4.348 6.83897 4.37132 6.8323C4.39527 6.82124 4.40817 6.83562 4.44501 6.84299C4.48186 6.85036 4.47744 6.8699 4.49991 6.8828C4.52239 6.8957 4.5515 6.87911 4.5795 6.90086C4.6075 6.92261 4.57545 6.9838 4.54265 7.01145C4.50986 7.03909 4.43433 7.09438 4.43765 7.13751C4.44096 7.18064 4.47744 7.34504 4.47044 7.36642L4.46933 7.36753ZM5.12333 9.60613C5.14212 9.72962 5.14212 9.88075 5.12333 9.93236C5.10056 10.022 5.09283 10.1148 5.10049 10.207C5.12705 10.3118 5.14736 10.4182 5.16128 10.5255C5.16497 10.6051 5.18007 10.7131 5.15355 10.7721C5.12702 10.831 5.1237 10.987 5.06622 10.9792C5.00874 10.9715 4.89895 10.74 4.83815 10.7083C4.77736 10.6766 4.47744 10.6766 4.32564 10.6924C4.17383 10.7083 3.90007 10.6924 3.82012 10.7083C3.74017 10.7241 3.75933 10.7761 3.68711 10.7643C3.61489 10.7525 3.56184 10.6408 3.56552 10.5531C3.56921 10.4654 3.63921 10.3065 3.7129 10.0437C3.79956 9.72487 3.86419 9.40045 3.90634 9.07275C3.93287 8.82614 4.01282 8.41993 4.00914 8.20502C4.00545 7.99012 4.12299 7.85484 4.12299 7.7472C4.12299 7.63957 3.97892 7.61598 3.9675 7.50465C3.96197 7.45305 4.10014 7.26985 4.16094 7.27353C4.22173 7.27722 4.28068 7.36937 4.34001 7.50465C4.38938 7.61524 4.32379 7.96469 4.3319 8.03767C4.34001 8.11066 4.34737 8.16927 4.36875 8.10144C4.39012 8.03362 4.40154 7.93225 4.42217 7.84341C4.44074 7.75148 4.47095 7.66231 4.51207 7.57801C4.54671 7.52087 4.73314 7.42172 4.76999 7.41766C4.80683 7.41361 4.8761 7.42172 4.88052 7.45747C4.88495 7.49323 4.7173 7.57285 4.68709 7.64436C4.6467 7.76471 4.6124 7.88698 4.58429 8.01076C4.56918 8.07454 4.53123 8.1501 4.53492 8.19765C4.5386 8.2452 4.56144 8.30824 4.51981 8.3967C4.47817 8.48517 4.32453 8.84789 4.27663 8.9382C4.20073 9.08123 4.15504 9.66253 4.1742 9.66659C4.19336 9.67064 4.30684 9.29797 4.34516 9.29797C4.38348 9.29797 4.33448 9.5748 4.33779 9.62973C4.34111 9.68465 4.326 9.80592 4.36027 9.83357C4.39454 9.86122 4.51686 9.76206 4.52571 9.70234C4.53455 9.64263 4.47412 8.89839 4.49697 8.81066C4.51981 8.72293 4.73609 8.3451 4.75157 8.24557C4.76704 8.14605 4.77625 7.65394 4.83226 7.6451C4.88826 7.63625 4.95274 7.83973 4.97964 7.97906C5.00653 8.1184 5.01648 8.5283 5.02164 8.63962C5.0268 8.75095 5.04043 9.3599 5.04043 9.40782C5.04043 9.45574 5.10123 9.48339 5.12039 9.60687L5.12333 9.60613ZM14.3891 9.43915C14.4201 9.57259 14.5063 10.0267 14.5579 10.207C14.6095 10.3872 14.6441 10.5207 14.6316 10.6036C14.6191 10.6865 14.58 10.7588 14.4942 10.7337C14.4083 10.7087 14.052 10.6759 13.8575 10.6759C13.6629 10.6759 13.3641 10.639 13.3387 10.6965C13.3133 10.754 13.2621 10.9789 13.1913 10.9678C13.1206 10.9567 13.0366 10.6865 13.0502 10.5675C13.0638 10.4484 13.1121 10.2287 13.1191 10.162C13.1261 10.0953 13.0561 9.65774 13.0951 9.54716C13.1342 9.43657 13.1795 9.37722 13.1839 9.32341C13.1884 9.26959 13.1744 8.51982 13.1814 8.2817C13.1884 8.04357 13.3052 7.62187 13.3534 7.61819C13.4017 7.6145 13.412 8.13425 13.4669 8.2312C13.5218 8.32814 13.6596 8.52314 13.6802 8.67354C13.7009 8.82393 13.653 9.1461 13.6736 9.39823C13.6942 9.65037 13.7974 9.84905 13.8284 9.83468C13.8593 9.8203 13.8925 9.75358 13.8862 9.66438C13.8799 9.57517 13.825 9.27217 13.856 9.25411C13.8869 9.23604 14.0082 9.65958 14.0314 9.66143C14.0546 9.66327 14.0623 9.18923 14.0141 9.07754C13.9658 8.96585 13.818 8.72035 13.7388 8.51134C13.6596 8.30234 13.6699 8.15784 13.639 8.01371C13.608 7.86958 13.5531 7.60271 13.4702 7.5452C13.3873 7.4877 13.3088 7.45858 13.3258 7.42614C13.3427 7.3937 13.5358 7.34689 13.6206 7.4512C13.7134 7.57123 13.7749 7.71248 13.7996 7.86221C13.8239 8.00966 13.8273 8.06974 13.8733 8.06974C13.9194 8.06974 13.8475 7.64252 13.8785 7.50355C13.9094 7.36458 13.9746 7.25658 14.0259 7.25105C14.0771 7.24552 14.1773 7.31777 14.1946 7.36458C14.2119 7.41139 14.2443 7.4818 14.2204 7.52345C14.1964 7.56511 14.069 7.68749 14.0878 7.73983C14.1065 7.79217 14.2042 7.87954 14.2123 7.96469C14.2204 8.04984 14.2462 8.57438 14.2598 8.6916C14.2734 8.80882 14.3578 9.30461 14.3888 9.43805L14.3891 9.43915ZM13.8906 7.07743C13.9146 7.10102 14.0196 7.05568 14.0679 7.05752C14.1161 7.05937 14.0984 7.09918 14.0763 7.12092C14.0542 7.14267 13.9113 7.13346 13.8803 7.18912C13.8494 7.24478 13.7819 7.38043 13.713 7.38043C13.6441 7.38043 13.7012 7.21971 13.7149 7.14415C13.7285 7.06858 13.5605 7.01587 13.5675 6.9204C13.5712 6.88096 13.5984 6.8898 13.6537 6.88354C13.709 6.87727 13.7094 6.82714 13.7724 6.82935C13.8354 6.83156 13.8634 6.88722 13.86 6.94473C13.8567 7.00223 13.8652 7.05531 13.8895 7.07817L13.8906 7.07743ZM14.2801 6.8194C14.2628 6.88169 14.1423 6.7689 14.1224 6.74825C14.0698 6.70491 14.0075 6.67516 13.9407 6.66163C13.8548 6.64287 13.7779 6.59509 13.723 6.52635C13.6685 6.45852 13.6334 6.48285 13.5119 6.44341C13.3903 6.40397 13.2142 6.23109 13.2248 6.1522C13.2355 6.07332 13.2447 6.09359 13.2676 6.07295C13.2904 6.05231 13.44 6.12566 13.5255 6.17469C13.611 6.22371 13.734 6.36637 13.8287 6.44157C13.9234 6.51676 14.101 6.60155 14.1747 6.64283C14.2484 6.68412 14.2989 6.75747 14.2816 6.8194H14.2801ZM8.827 5.7353H8.86385C8.90733 5.7353 8.95117 5.7353 8.99649 5.7353H9.02302C9.06834 5.7353 9.11219 5.7353 9.15566 5.7353H9.1693L9.26251 5.73272C9.28812 5.73563 9.31358 5.73994 9.33878 5.74562C9.43753 5.76958 9.55985 5.93546 9.70392 6.03535C9.91379 6.17255 10.1358 6.29025 10.3671 6.38701C10.5668 6.47024 10.7723 6.53851 10.9821 6.59122C11.2249 6.65426 11.4629 6.6867 11.4611 6.71434C11.4592 6.74199 11.3686 6.73167 11.0495 6.69739C10.7489 6.66362 10.4525 6.59889 10.1652 6.50423C9.94783 6.4283 9.61254 6.25947 9.33915 6.1006C9.08639 5.95315 8.84064 5.78543 8.82774 5.73493L8.827 5.7353ZM8.38486 5.71318C8.4475 5.71797 8.51235 5.72203 8.58014 5.72571C8.58898 5.74378 8.82295 5.92034 8.91175 5.98374C9.06244 6.08688 9.22003 6.17963 9.38337 6.26131C9.50717 6.31734 9.91136 6.48506 9.96478 6.50681C10.0182 6.52856 10.3071 6.6174 10.4346 6.65426C10.562 6.69112 10.8911 6.74567 11.0167 6.76669C11.1424 6.7877 11.4143 6.8205 11.5071 6.8135C11.6 6.8065 11.8583 6.75563 11.8583 6.7324C11.8583 6.70918 11.537 6.65205 11.1855 6.57169C10.9886 6.53036 10.7966 6.46859 10.6125 6.38738C10.6125 6.38738 10.0687 6.12013 9.9762 6.05231C9.88372 5.98448 9.5558 5.79243 9.56612 5.75262C9.56789 5.7447 9.57142 5.73725 9.57647 5.73087C9.58148 5.7245 9.58789 5.71934 9.59523 5.71576C9.68439 5.70949 9.76803 5.70212 9.84651 5.69438C9.87971 5.69151 9.91313 5.69151 9.94636 5.69438C9.98615 5.70175 10.2242 5.9572 10.3646 6.04088C10.5049 6.12456 10.8465 6.2462 11.1081 6.32545C11.3697 6.4047 11.4935 6.46626 11.7171 6.52045C11.9408 6.57464 12.1862 6.63656 12.2952 6.60302C12.4043 6.56948 12.4227 6.5492 12.4021 6.50239C12.3815 6.45557 12.3608 6.43382 12.3796 6.42866C12.5025 6.41713 12.6264 6.42774 12.7455 6.46C12.8929 6.50792 12.9216 6.55842 12.9905 6.56579C13.0594 6.57316 13.2451 6.55141 13.3416 6.58385C13.4382 6.61629 13.6032 6.68485 13.5822 6.76816C13.5612 6.85147 13.4422 6.85626 13.3759 6.82935C13.3096 6.80244 13.2315 6.69222 13.0937 6.69222C12.9559 6.69222 12.4305 6.90123 12.1611 6.91597C11.8918 6.93072 11.0875 6.94473 10.7363 6.93035C10.3947 6.91903 10.0565 6.85947 9.73155 6.75342C9.42168 6.6491 9.02744 6.33098 8.90291 6.23219C8.77837 6.1334 8.38928 5.81271 8.32554 5.73677C8.31338 5.7224 8.33475 5.71465 8.38486 5.71134V5.71318ZM10.1022 5.66563C10.2496 5.6472 10.3671 5.62877 10.4545 5.61218C10.6067 5.77839 10.7894 5.91378 10.9928 6.01102C11.2271 6.1174 11.4673 6.21066 11.712 6.29043C11.8686 6.34241 12.1132 6.47142 12.1129 6.48506C12.1125 6.4987 11.87 6.49944 11.6121 6.41466C11.3542 6.32987 11.2197 6.26721 11.0373 6.20749C10.855 6.14778 10.5746 6.04899 10.4298 5.97158C10.285 5.89417 10.1236 5.72461 10.1011 5.67669C10.0999 5.67348 10.0999 5.66994 10.1011 5.66673L10.1022 5.66563ZM10.0551 3.378C10.159 3.378 10.2433 3.479 10.2433 3.60359C10.2433 3.72818 10.159 3.82955 10.0551 3.82955C9.84319 3.79896 9.88299 3.38721 10.0551 3.378ZM8.77616 3.18669C8.77616 3.17231 8.79016 3.16162 8.813 3.16162C8.83585 3.16162 8.83327 3.18116 8.88448 3.18116C8.9357 3.18116 8.9917 3.04514 9.02413 3.03961C9.03802 3.02772 9.055 3.02005 9.07313 3.01749C9.08393 3.01888 9.0945 3.02186 9.10445 3.02634C9.11311 3.02828 9.12132 3.03178 9.12877 3.03666C9.14866 3.03998 9.19288 3.12918 9.2452 3.16457C9.27762 3.18632 9.32662 3.16162 9.33547 3.16162C9.35942 3.16162 9.37231 3.17231 9.37231 3.18669C9.37231 3.20106 9.27172 3.31754 9.24814 3.32086C9.22456 3.32418 9.14756 3.16678 9.07387 3.16678C9.00018 3.16678 8.9217 3.32234 8.89959 3.32086C8.87748 3.31939 8.77468 3.20069 8.77468 3.18669H8.77616ZM7.90403 3.59216C7.90403 3.4672 7.99173 3.37652 8.09563 3.37652C8.12805 3.37652 8.15495 3.40491 8.17669 3.42481C8.22422 3.46794 8.24633 3.5354 8.24633 3.61944C8.24776 3.65026 8.24242 3.681 8.2307 3.70953C8.21899 3.73806 8.20119 3.76368 8.17853 3.78458C8.15517 3.80607 8.12658 3.82107 8.09563 3.82808C7.99173 3.82808 7.90403 3.71749 7.90403 3.59216ZM7.53964 4.16573C7.51027 4.13333 7.47822 4.10347 7.44384 4.07652C7.43566 4.0773 7.42763 4.07903 7.41989 4.08169C7.41352 4.11847 7.41528 4.15622 7.42505 4.19227C7.442 4.22913 7.46447 4.28184 7.45084 4.30286C7.43721 4.32387 7.35688 4.29585 7.30899 4.22065C7.24616 4.12238 7.21289 4.00811 7.21319 3.89148C7.21319 3.74403 7.23566 3.60507 7.34473 3.60507C7.38378 3.60507 7.42129 3.62058 7.44892 3.64827C7.47656 3.67591 7.49211 3.7134 7.49211 3.75251C7.49211 3.80965 7.43573 3.90291 7.43389 3.94751C7.43205 3.99211 7.48842 4.03524 7.53964 4.04409C7.59085 4.05293 7.65017 4.08906 7.65791 4.13182C7.66565 4.17458 7.69475 4.30802 7.67338 4.31613C7.65201 4.32423 7.58238 4.20849 7.53816 4.16536L7.53964 4.16573ZM7.70654 5.33203C7.69623 5.2819 7.67633 4.95346 7.70212 4.9037C7.72828 4.88306 7.86866 4.82998 8.14426 4.76141C8.41987 4.69285 8.89075 4.67442 8.92133 4.68769C8.95191 4.70096 8.92133 5.05631 8.88817 5.07142C8.88817 5.03456 8.16563 5.12192 7.70691 5.33129L7.70654 5.33203ZM10.3727 5.45367C10.0178 5.37221 9.6376 5.21297 9.08676 5.19306C8.62804 5.17611 8.20248 5.28301 7.76955 5.4393C7.76837 5.41132 7.7764 5.38375 7.79239 5.36078C8.24927 5.14809 8.9438 5.10275 9.09082 5.10902C9.09082 5.10902 9.467 5.13593 9.67223 5.1691C9.87746 5.20228 10.324 5.33019 10.3579 5.36594C10.3918 5.4017 10.3907 5.45625 10.3727 5.45367ZM9.00018 4.82998C9.00718 4.78501 9.04439 4.77948 9.07387 4.778C9.10334 4.77653 9.1424 4.78537 9.14756 4.82998C9.15271 4.87458 9.14424 4.96784 9.12361 4.97742C9.10743 4.98446 9.09 4.98811 9.07239 4.98811C9.05474 4.98811 9.03732 4.98446 9.02118 4.97742C9.00054 4.96673 8.9906 4.87347 8.99723 4.82998H9.00018ZM9.39073 4.93687C9.39958 4.86905 9.37305 4.81413 9.45263 4.80786C9.53222 4.80159 9.58159 4.80159 9.57275 4.88785C9.56391 4.97411 9.52596 5.02313 9.48174 5.02313C9.43753 5.02313 9.38189 5.0047 9.39073 4.93687ZM10.0864 4.9859C10.0307 4.96157 10.0042 4.98295 9.93678 4.98295C9.86935 4.98295 9.82256 4.93393 9.80782 4.96784C9.79308 5.00175 9.81924 5.04451 9.82809 5.06921C9.83693 5.09391 9.86051 5.08137 9.81372 5.11529C9.79382 5.12929 9.68144 5.04451 9.69323 4.94941C9.70502 4.85431 9.82808 4.82334 9.95115 4.82629C10.0742 4.82924 10.2091 4.90001 10.1917 4.98922C10.1744 5.07842 10.1066 5.1492 10.086 5.13998C10.0654 5.13077 10.1416 5.0106 10.086 4.9859H10.0864ZM10.8417 4.21955C10.7938 4.29327 10.7135 4.32165 10.6998 4.30175C10.6862 4.28184 10.7083 4.23024 10.7256 4.19116C10.7354 4.15511 10.7371 4.11737 10.7308 4.08058C10.723 4.07793 10.715 4.07619 10.7068 4.07542C10.6724 4.10237 10.6404 4.13222 10.611 4.16462C10.5668 4.20775 10.4968 4.32423 10.4758 4.31539C10.4548 4.30654 10.4847 4.17384 10.4917 4.13108C10.4987 4.08832 10.558 4.05257 10.6096 4.04335C10.6612 4.03413 10.7172 3.99174 10.7153 3.94677C10.7135 3.9018 10.6571 3.80891 10.6571 3.75177C10.6571 3.71266 10.6726 3.67518 10.7002 3.64753C10.7279 3.61985 10.7654 3.60433 10.8045 3.60433C10.915 3.60433 10.9379 3.74219 10.936 3.89074C10.9363 4.00737 10.903 4.12164 10.8402 4.21992L10.8417 4.21955ZM4.14362 5.96605C4.17826 5.94799 4.18452 5.50418 4.14546 5.50418C4.10641 5.50418 4.06477 5.62729 4.00951 5.65162C3.95424 5.67595 3.83117 5.66157 3.81902 5.71613C3.81902 5.71613 4.10936 5.98338 4.14362 5.96531V5.96605ZM9.84798 16.1822H9.86788C9.93457 16.1822 10.0326 16.1373 10.0458 16.0455H10.1652V16.8089H10.0064V16.2726H9.84798V16.1822ZM9.40068 16.1369C9.31078 16.1369 9.27799 16.218 9.27799 16.288C9.27799 16.3806 9.33105 16.4355 9.40179 16.4355C9.49427 16.4355 9.52743 16.3577 9.52743 16.288C9.52743 16.253 9.51269 16.1347 9.40068 16.1347V16.1369ZM8.73342 16.1483C8.64388 16.1483 8.61109 16.2291 8.61109 16.2987C8.61109 16.3905 8.66415 16.4462 8.73415 16.4462C8.82664 16.4462 8.85906 16.3688 8.85906 16.3009C8.85906 16.2641 8.84506 16.1483 8.73342 16.1483ZM7.96299 16.1822H7.98325C8.04957 16.1822 8.14758 16.1373 8.16121 16.0455H8.28022V16.8089H8.12142V16.2726H7.96299V16.1822ZM9.6166 18.3648H14.2657V18.276H9.6166V18.3648ZM3.89971 18.3648H8.54809V18.276H3.90008V18.3648H3.89971ZM16.1212 19.9996L14.4864 17.7426C14.4392 17.7384 14.3917 17.7384 14.3446 17.7426C14.301 17.7519 14.2587 17.7659 14.2182 17.7843L15.2867 19.561C15.2867 19.561 13.6099 19.1046 12.6055 19.0014C11.8929 18.9277 11.0101 18.9362 10.355 19.0342C9.69987 19.1323 9.02707 19.4629 9.02707 19.4629L9.02228 19.4651L9.01676 19.4629C9.01676 19.4629 8.34433 19.1312 7.69033 19.0342C7.03633 18.9373 6.15279 18.9281 5.4402 19.0014C4.4358 19.1046 2.75898 19.561 2.75898 19.561L3.82749 17.7843C3.78685 17.7658 3.74437 17.7518 3.70074 17.7426C3.65366 17.7384 3.60631 17.7384 3.55926 17.7426L1.92295 19.9996H1.93327L8.39334 19.6163L8.36349 19.9193H9.68144L9.6516 19.6163L16.1117 19.9996H16.1212ZM5.70512 16.8059C5.70512 16.8059 5.88934 16.8749 5.92987 16.9125C5.9704 16.9501 6.02383 17.1941 6.07725 17.3132C6.13068 17.4322 6.14173 17.5074 6.18337 17.5822C6.225 17.6571 6.15131 17.67 6.09125 17.6073C6.0312 17.5447 5.88455 17.4945 5.88529 17.4569C5.88603 17.4193 5.8315 17.3508 5.77844 17.2317C5.72538 17.1126 5.6528 17.0378 5.65353 16.9685C5.65773 16.9074 5.66684 16.8468 5.6808 16.7871L5.70512 16.8059ZM2.66318 11.1901C2.66318 11.1901 2.32898 11.5609 2.2903 11.6619C2.23269 11.814 2.18457 11.9694 2.14623 12.1275C2.13705 12.0142 2.1455 11.9001 2.17129 11.7894C2.16466 11.6545 2.35551 11.3136 2.66318 11.1904V11.1901ZM3.42662 16.2313C3.34113 16.2397 3.0799 16.0838 2.94468 16.0219C2.86653 15.9625 2.77877 15.9171 2.68529 15.8874C2.28477 16.0448 1.65582 15.5479 1.6654 15.5405C1.60866 15.5165 2.38573 15.9371 2.67129 15.7716C2.70814 15.7517 2.56076 15.6367 2.49222 15.5788C2.43657 15.5372 2.24092 15.4133 2.16834 15.4074C1.98107 15.3998 1.79776 15.3512 1.63133 15.2649C1.46492 15.1787 1.31945 15.057 1.20521 14.9083C1.21295 14.9017 1.4727 15.1409 1.8231 15.2323C1.93806 15.2828 2.17387 15.3344 2.23061 15.3256C2.14918 15.2261 1.96459 14.9061 2.00954 14.8302C2.02649 14.8807 2.47822 15.4881 2.59318 15.5187C2.63002 15.5696 2.66355 15.5556 2.68124 15.5165C2.69634 15.4682 2.67645 15.1431 2.70519 15.1439C2.73393 15.1446 2.72103 15.5331 2.83709 15.7569C2.94851 15.8618 3.06679 15.9592 3.19117 16.0484C3.29582 16.1004 3.45535 16.2416 3.42735 16.2327L3.42662 16.2313ZM4.09683 15.9677C4.06809 15.9677 4.04045 15.9179 4.00324 15.8638C3.96603 15.8096 3.85844 15.414 3.7888 15.3142C3.71917 15.2143 3.30982 14.8368 3.32529 14.7107C3.33966 14.6982 3.63221 15.0425 3.665 15.0628C3.6978 15.083 3.7118 15.0978 3.74054 15.0628C3.66685 14.3797 3.1488 14.1781 3.19449 14.153C3.48925 14.2367 3.65432 14.4442 3.75417 14.5397C3.78364 14.5349 3.73538 14.4328 3.72174 14.3893C3.41077 13.947 3.44725 13.7435 3.57694 13.1047C3.57989 13.0914 3.51394 13.5621 3.65727 13.9462C3.66648 13.9709 3.67458 13.7571 3.9815 13.6145C3.99108 13.61 3.76043 13.8423 3.70111 14.0867C3.70774 14.243 3.77812 14.2994 3.82602 14.3753C3.9255 14.5334 3.86765 14.8571 3.86507 15.0333C3.86507 15.0974 3.88755 15.2585 3.91702 15.2585C3.9465 15.2585 3.9465 15.1372 3.94797 15.0488C3.92071 14.717 4.11857 14.1744 4.39712 14.0505C3.9944 14.3646 4.04303 15.567 4.20036 15.9305C4.22763 15.9943 4.10125 15.9648 4.09683 15.9648V15.9677ZM1.6304 13.6436C1.64035 13.665 1.72767 13.7125 1.66983 13.7501C1.65988 13.7568 1.17057 13.359 1.05562 13.3019C0.966084 13.2388 0.527627 13.1253 0.506994 13.1327C0.532785 13.0549 0.935502 13.1828 0.967557 13.1143C0.147385 12.7596 0.178703 12.628 0.211864 12.3818C0.239129 12.7305 1.05304 13.1143 0.697483 12.68C0.407143 12.321 0.376562 11.9951 0.439567 11.7412C0.390563 12.3228 1.00809 12.8861 1.13226 13.1596C1.1201 12.8647 0.856654 12.5329 1.13889 12.203C1.04383 12.3951 1.02283 13.0372 1.6304 13.6454V13.6436ZM1.55671 10.521C1.53018 10.5284 1.54529 10.2811 1.52355 10.1616C1.55634 10.0098 1.2111 9.67838 1.17426 9.6946C1.19047 9.6747 1.34264 9.70898 1.40196 9.74252C1.46423 9.79892 1.48928 9.92683 1.61014 10.0665C1.63151 10.0864 1.72067 10.0798 1.70925 9.78049C1.59871 9.25484 1.04604 9.2401 1.90121 8.40408C1.58619 8.72662 1.53276 9.09007 1.73688 9.45463C1.91853 9.70124 1.864 9.92314 1.67793 10.1771C1.64477 10.2225 1.58324 10.5137 1.55671 10.521ZM1.8021 11.8506C1.79878 11.8248 1.7951 11.7994 1.79215 11.774C1.83821 11.82 1.90269 11.8801 1.93437 11.8812C1.98485 11.8831 2.01801 11.7032 2.01985 11.6302C2.0126 11.508 1.99858 11.3863 1.97785 11.2656C1.97122 11.2317 1.95795 11.1739 1.95059 11.1484C1.94818 11.1446 1.94643 11.1403 1.94543 11.1359C1.94543 11.1326 1.94727 11.1385 1.95022 11.1499C1.9668 11.1868 2.02612 11.2933 2.03312 11.3342C2.04735 11.3855 2.06738 11.4349 2.09281 11.4817C2.16392 11.3342 2.24019 11.1211 2.34778 10.935C2.4561 10.7912 2.49517 10.7938 2.46679 10.8495C2.43841 10.9051 2.29582 11.2203 2.29656 11.2181C2.28772 11.2303 2.08139 11.743 2.04086 11.9627C2.02943 12.0545 2.0357 12.5646 2.0357 12.5646C2.0357 12.5646 1.96569 12.3177 1.96201 12.2635C1.95832 12.2093 1.90969 12.0029 1.86989 11.9623C1.84337 11.9271 1.82077 11.889 1.80247 11.8488L1.8021 11.8506ZM4.88052 16.1454C4.88052 16.1454 4.78694 16.9438 4.97374 17.2663C5.27587 17.7883 5.62037 18.0183 6.16237 18.1237C6.16237 18.1237 6.59972 18.1956 6.79536 18.1956C6.94322 18.1926 7.09083 18.1814 7.23751 18.1621C7.07082 18.0477 6.92038 17.9113 6.79021 17.7566L6.72094 17.6696C6.71755 17.6661 6.7146 17.6623 6.71209 17.6582C6.51497 17.3832 6.51939 17.1237 6.44792 17.0739C6.37644 17.0242 6.10673 16.9445 6.06362 16.9497C6.02051 16.9549 6.01056 16.9829 6.03378 17.0212C6.09954 17.1343 6.15529 17.253 6.20032 17.3758C6.232 17.4864 6.22979 17.6151 6.27695 17.663C6.32412 17.7109 6.5135 17.8381 6.55145 17.8668C6.5894 17.8956 6.63583 17.9037 6.63509 17.9405C6.63435 17.9774 6.6384 18.032 6.61482 18.0316C6.51608 18.0316 6.35433 17.8432 6.14247 17.7249C5.9903 17.6401 5.93135 17.5815 5.80202 17.5384C5.70807 17.5067 5.5441 17.4761 5.52716 17.4425C5.51021 17.409 5.543 17.4016 5.60085 17.4164C5.65869 17.4311 5.77033 17.4389 5.79465 17.4245C5.81897 17.4101 5.59495 17.1071 5.49105 17.0238C5.31677 16.9781 4.99511 16.6205 5.01206 16.6039C5.25008 16.7934 5.3632 16.862 5.57542 16.9479C5.6189 16.9652 5.61779 16.8406 5.61006 16.8126C5.60232 16.7846 5.44425 16.6795 5.30903 16.6091C5.14813 16.5192 5.01759 16.3834 4.93395 16.2191C4.92017 16.1919 4.90786 16.164 4.8971 16.1354C4.8971 16.1354 4.90337 16.1082 4.88163 16.1454H4.88052ZM12.5097 16.7941C12.5097 16.7941 12.3291 16.8642 12.2886 16.9022C12.2481 16.9401 12.1961 17.1886 12.1434 17.3098C12.0907 17.4311 12.0797 17.5071 12.0384 17.5834C11.9972 17.6597 12.0701 17.6726 12.1294 17.6088C12.1888 17.545 12.3336 17.4941 12.3332 17.4558C12.3328 17.4175 12.3862 17.3478 12.4389 17.2269C12.4916 17.106 12.5631 17.0297 12.562 16.9597C12.5578 16.8976 12.5488 16.836 12.5351 16.7753L12.5111 16.7945L12.5097 16.7941ZM15.5177 11.0854C15.5177 11.0854 15.8493 11.4621 15.8862 11.5646C15.9429 11.7193 15.9902 11.8774 16.0276 12.0379C16.0366 11.9227 16.0283 11.8067 16.003 11.694C16.0092 11.5572 15.8187 11.2104 15.5162 11.0854H15.5177ZM14.762 16.2092C14.8468 16.2176 15.105 16.0599 15.2388 15.9961C15.3162 15.9363 15.4035 15.8906 15.4967 15.8608C15.8924 16.0212 16.5147 15.5158 16.5048 15.5084C16.5615 15.4841 15.7926 15.9117 15.51 15.7436C15.4753 15.7233 15.6176 15.6065 15.6868 15.5475C15.7417 15.5051 15.9352 15.3794 16.007 15.3731C16.1935 15.3649 16.3759 15.315 16.5406 15.2272C16.7054 15.1394 16.8485 15.0158 16.9595 14.8655C16.9517 14.8593 16.6945 15.1022 16.3482 15.1951C16.2347 15.2449 16.0026 15.2979 15.9455 15.2887C16.0258 15.1874 16.2086 14.8622 16.1632 14.7848C16.147 14.8361 15.7008 15.4539 15.587 15.4833C15.5501 15.5353 15.5173 15.5202 15.4997 15.4811C15.4849 15.4321 15.5044 15.1015 15.4764 15.1026C15.4484 15.1037 15.4606 15.4981 15.346 15.7255C15.2358 15.8314 15.1187 15.9299 14.9956 16.0204C14.8921 16.0731 14.7347 16.2165 14.762 16.2077V16.2092ZM16.5391 13.5787C16.5291 13.6005 16.4425 13.6487 16.4996 13.6871C16.5096 13.6937 16.9934 13.289 17.1072 13.2311C17.196 13.167 17.6293 13.052 17.6496 13.0593C17.6241 12.9801 17.2262 13.1106 17.1942 13.0405C18.0048 12.68 17.9745 12.5462 17.9417 12.2959C17.9145 12.6505 17.1098 13.0405 17.4628 12.5989C17.7498 12.234 17.7804 11.903 17.7207 11.6446C17.7678 12.2362 17.1569 12.8083 17.0343 13.0848C17.0464 12.7866 17.3069 12.4493 17.028 12.1124C17.1219 12.3077 17.1426 12.9602 16.542 13.5787H16.5391ZM16.6105 10.4042C16.6367 10.4119 16.622 10.1605 16.6437 10.0389C16.6109 9.88444 16.9525 9.54789 16.9889 9.56411C16.9727 9.54384 16.8224 9.57886 16.7638 9.61314C16.7023 9.67027 16.6772 9.8004 16.5578 9.94231C16.5368 9.96259 16.4473 9.95558 16.4598 9.65147C16.5704 9.11698 17.1149 9.10224 16.2701 8.25073C16.5814 8.5788 16.633 8.94815 16.4326 9.31972C16.2528 9.57075 16.3069 9.79634 16.4908 10.0544C16.5236 10.1004 16.5844 10.3964 16.6105 10.4038V10.4042ZM16.3681 11.7559C16.3714 11.7297 16.3751 11.7036 16.378 11.6778C16.3327 11.7249 16.2675 11.7858 16.2373 11.7883C16.1876 11.7883 16.1544 11.6074 16.1529 11.5329C16.1598 11.4087 16.1738 11.285 16.1946 11.1624C16.2008 11.1278 16.2141 11.0692 16.2215 11.043C16.2238 11.0392 16.2255 11.0349 16.2262 11.0305C16.2262 11.0268 16.2244 11.033 16.2218 11.0448C16.2052 11.0839 16.1481 11.1904 16.1397 11.2336C16.1257 11.2848 16.1059 11.3343 16.0807 11.381C16.0103 11.2314 15.9333 11.015 15.8287 10.8255C15.7215 10.6781 15.6813 10.6818 15.7108 10.7385C15.7403 10.7953 15.8803 11.116 15.8803 11.1156C15.8887 11.1281 16.0932 11.649 16.133 11.8724C16.1444 11.9656 16.1382 12.4843 16.1382 12.4843C16.1382 12.4843 16.2074 12.2333 16.2119 12.1783C16.2163 12.1234 16.2638 11.9133 16.3032 11.872C16.3296 11.8361 16.352 11.7974 16.3699 11.7566L16.3681 11.7559ZM13.3254 16.1225C13.3254 16.1225 13.4179 16.9335 13.2333 17.2619C12.9345 17.7927 12.594 18.0264 12.058 18.1337C12.058 18.1337 11.6254 18.2074 11.4316 18.2074C11.2846 18.2044 11.138 18.193 10.9924 18.1731C11.162 18.0535 11.3143 17.9111 11.4452 17.75L11.4574 17.7349C11.4681 17.7216 11.4651 17.7245 11.4762 17.7105C11.7076 17.4138 11.6972 17.1207 11.7731 17.068C11.849 17.0153 12.1106 16.9368 12.153 16.9416C12.1954 16.9464 12.2053 16.9755 12.1825 17.0153C12.1173 17.1303 12.0623 17.2508 12.0182 17.3755C11.9865 17.486 11.9887 17.6187 11.9423 17.6678C11.8958 17.7168 11.7083 17.8454 11.6707 17.8746C11.6331 17.9037 11.5874 17.9114 11.5878 17.9501C11.5882 17.9888 11.5845 18.043 11.6081 18.0427C11.7053 18.0427 11.866 17.8513 12.0753 17.7312C12.2252 17.6445 12.2838 17.5837 12.4117 17.541C12.5045 17.5089 12.6655 17.4779 12.6836 17.4436C12.7016 17.4094 12.6677 17.4024 12.6099 17.4171C12.552 17.4319 12.4422 17.44 12.4183 17.4252C12.3943 17.4105 12.6158 17.1027 12.7182 17.0197C12.8907 16.9733 13.2086 16.6095 13.1913 16.5929C12.9562 16.7857 12.8439 16.8568 12.6342 16.9427C12.5915 16.96 12.5926 16.8321 12.5999 16.8048C12.6073 16.7776 12.7639 16.6699 12.8977 16.598C13.1246 16.4768 13.2392 16.2619 13.2705 16.2003C13.2915 16.1594 13.3074 16.1155 13.3074 16.1155C13.3074 16.1155 13.3011 16.0875 13.3225 16.1255L13.3254 16.1225ZM4.99585 1.60532L5.13512 2.06757H5.58648L5.22134 2.35324L5.36098 2.81549L4.99585 2.52981L4.63108 2.81549L4.77036 2.35324L4.40559 2.06757H4.85657L4.99585 1.60532ZM9.67518 17.6608H11.4806L11.3999 17.7577L9.53553 17.7544L9.6737 17.6593L9.67518 17.6608ZM8.46887 17.6608L6.76036 17.6567L6.83405 17.757H8.5982L8.46887 17.6619V17.6608ZM14.101 15.9419C14.1294 15.9419 14.1567 15.8914 14.1935 15.8361C14.2303 15.7808 14.3365 15.379 14.4054 15.2777C14.4743 15.1763 14.8799 14.7926 14.8637 14.6643C14.8497 14.6514 14.5605 15.0008 14.528 15.0218C14.4956 15.0429 14.482 15.0587 14.4544 15.0237C14.5255 14.3292 15.0395 14.1232 14.9945 14.0988C14.7027 14.184 14.5398 14.3937 14.4418 14.4918C14.4131 14.487 14.4606 14.383 14.4743 14.3392C14.7815 13.8902 14.7454 13.6823 14.6172 13.0328C14.6146 13.0195 14.6795 13.498 14.538 13.8887C14.5288 13.9138 14.5207 13.6963 14.2171 13.5514C14.2079 13.547 14.4341 13.7833 14.4945 14.0306C14.4879 14.1895 14.4183 14.2466 14.3707 14.3255C14.2727 14.4859 14.3298 14.815 14.3339 14.9942C14.3339 15.0594 14.3118 15.2235 14.2823 15.2235C14.2528 15.2235 14.2532 15.1 14.2521 15.01C14.279 14.6731 14.0833 14.1213 13.8077 13.9952C14.2057 14.3148 14.1578 15.5372 14.0023 15.9076C13.9754 15.9721 14.1003 15.9423 14.1047 15.9423L14.101 15.9419ZM9.07829 3.53466C9.17077 3.53466 9.22309 3.6692 9.22309 3.79859C9.22309 3.92797 9.1435 4.05662 9.07571 4.05662C9.00791 4.05662 8.93717 3.94603 8.93717 3.82771C8.93717 3.70938 8.98028 3.53577 9.07903 3.53577L9.07829 3.53466ZM9.03002 4.16536H9.1295C9.1295 4.16536 9.1295 4.30875 9.19767 4.38211C9.2494 4.43309 9.30945 4.47485 9.37526 4.50559L9.37231 4.55462L8.78095 4.56089V4.50559C8.84524 4.47128 8.90401 4.42741 8.95522 4.37547C9.07129 4.2166 9.03113 4.16278 9.02892 4.16536H9.03002ZM8.69547 5.04267C8.81006 5.04267 8.83032 4.83145 8.79126 4.83477C8.75221 4.83809 8.79126 4.99622 8.69731 4.99622C8.60335 4.99622 8.63062 4.85615 8.59635 4.85283C8.56209 4.84951 8.58088 5.04267 8.69547 5.04267ZM8.34544 5.0998C8.38394 5.09483 8.41905 5.07503 8.44326 5.04462C8.46747 5.01421 8.47889 4.97558 8.47513 4.93687C8.47329 4.80454 8.30233 4.80675 8.1999 4.80675C8.08937 4.80675 7.95414 4.90481 7.95083 4.98C7.94751 5.0552 8.03262 5.11602 8.096 5.11418C8.15937 5.11234 8.07352 4.98332 8.20358 4.97816C8.33365 4.973 8.32149 5.0998 8.34544 5.0998ZM8.15384 4.90739C8.11958 4.91623 8.0481 4.95678 8.05473 4.98701C8.06136 5.01723 8.10631 5.06958 8.08715 5.08027C8.068 5.09096 7.98325 5.05151 7.98473 5.00654C7.99501 4.95597 8.02286 4.91067 8.06332 4.87863C8.10377 4.8466 8.15421 4.8299 8.2058 4.83145C8.26548 4.83145 8.37823 4.85394 8.42171 4.90112C8.43166 4.91218 8.4335 4.93171 8.45855 4.9295C8.45752 4.95409 8.45019 4.97805 8.43729 4.99902C8.4244 5.01996 8.40634 5.03729 8.38486 5.0493C8.38118 5.0106 8.4276 4.93872 8.35723 4.92655C8.28686 4.91439 8.28354 4.95273 8.23453 4.95273C8.18553 4.95273 8.18995 4.90001 8.15569 4.90886L8.15384 4.90739ZM7.62327 5.6166C7.71539 5.6343 7.81413 5.65346 8.00646 5.67669C8.04663 5.69438 8.08273 5.7176 8.08015 5.7353C8.07352 5.76774 8.02526 5.79649 7.98399 5.82192C7.94272 5.84736 7.88008 5.92882 7.84508 5.9443C7.81008 5.95978 7.76734 5.9878 7.55364 6.10465C7.33994 6.2215 7.29204 6.25468 7.29204 6.25468C7.30453 6.26441 7.3193 6.27082 7.33496 6.27333C7.35058 6.27584 7.36661 6.27436 7.38157 6.26905C7.44347 6.25468 7.58827 6.20786 7.63285 6.17542C7.67744 6.14299 7.82555 6.00107 7.94604 5.9373C8.06652 5.87353 8.15163 5.84072 8.25591 5.85436C8.36018 5.868 8.37639 5.99849 8.32481 6.10465C8.27322 6.21081 7.82555 6.42055 7.82555 6.42055C7.82555 6.42055 7.95635 6.42055 8.01162 6.41687C8.06689 6.41318 8.29017 6.3225 8.34323 6.29412C8.39629 6.26574 8.60814 6.22556 8.65641 6.20786C8.70468 6.19017 8.7021 6.2344 8.7301 6.2709C8.7581 6.30739 8.7371 6.33762 8.69952 6.40249C8.66194 6.46737 8.56504 6.52156 8.46887 6.54994C8.3727 6.57832 8.26585 6.66052 8.13726 6.69517C8.00867 6.72982 7.91619 6.73756 7.79497 6.76632C7.67375 6.79507 7.28246 6.8887 7.15829 6.89976C7.03412 6.91081 6.96227 6.94288 6.84842 6.95394C6.73457 6.965 6.01572 6.94288 5.95051 6.93551C5.78643 6.89983 5.62446 6.8553 5.46526 6.80207C5.34002 6.76488 5.21121 6.74114 5.08096 6.7313C5.03045 6.74188 4.98299 6.76366 4.94206 6.79507C4.8827 6.83466 4.81774 6.86511 4.74936 6.88538C4.68414 6.90676 4.67051 6.87653 4.65319 6.82382C4.63587 6.77111 4.6355 6.7501 4.67345 6.70844C4.7114 6.66679 4.80794 6.63656 4.85768 6.62551C4.90742 6.61445 5.1366 6.59675 5.2744 6.57869C5.4122 6.56063 5.43246 6.45963 5.43246 6.45963C5.43246 6.45963 5.6458 6.45262 5.81455 6.43825C5.9833 6.42387 6.65093 6.25394 6.98806 6.0453C7.3252 5.83667 7.57316 5.63725 7.59564 5.62582C7.60555 5.62117 7.61609 5.61793 7.62696 5.61623L7.62327 5.6166Z" fill="#163C94"/>
<path id="Vector_3" fill-rule="evenodd" clip-rule="evenodd" d="M8.31233 10.4189C7.90704 10.5125 7.76224 10.8586 8.36465 10.9143C8.61815 10.9375 8.89891 10.7938 8.90922 10.6047C8.90922 10.2887 8.5522 9.92529 7.90483 9.92529C7.25746 9.92529 6.38202 10.2279 6.38202 11.5044C6.38202 12.781 7.37684 13.2738 7.73681 13.2738C8.68558 13.2738 9.24746 12.37 8.29317 12.2549C8.29317 12.2549 7.74824 12.2277 7.74824 12.5056C7.74824 12.7835 8.18485 12.7802 8.18485 12.7802C8.18485 12.7802 8.1878 13.053 7.89267 13.053C7.59754 13.053 7.22688 12.7459 7.22688 11.744C7.22688 11.744 6.97486 11.7754 6.97486 11.6475C6.97486 11.5196 7.26409 11.5207 7.35178 11.5207C7.60638 11.5207 7.90004 11.684 7.95788 11.684C7.98202 11.6821 8.00479 11.6719 8.02222 11.6551C8.03964 11.6383 8.05062 11.6159 8.05331 11.5918C8.05626 11.5549 8.01942 11.531 8.01942 11.4812C8.01942 11.4315 8.3676 11.3629 8.3676 11.2206C8.34041 11.2137 8.31189 11.2137 8.2847 11.2206C8.2508 11.2328 7.65833 11.3577 7.31641 11.3577C6.97449 11.3577 6.95312 11.2733 6.9557 11.2103C6.96491 10.9523 7.28509 10.6636 7.29172 10.633C7.29394 10.6227 7.28546 10.6179 7.23314 10.6179C7.18082 10.6179 7.19003 10.6264 7.10197 10.6264C7.01391 10.6264 7.02018 10.5947 7.02018 10.5814C7.02018 10.5682 7.25009 10.2051 7.84661 10.2051C7.95715 10.2051 8.45898 10.3068 8.31233 10.4181V10.4189Z" fill="#163C94"/>
<path id="Vector_4" fill-rule="evenodd" clip-rule="evenodd" d="M9.72974 10.398C9.72974 10.398 10.068 10.5292 10.068 10.6878C10.068 10.8463 9.82186 10.9557 9.60042 10.9557C8.8532 10.9557 9.28466 9.92693 10.2157 9.92693C10.7142 9.92693 10.8089 10.1452 10.8089 10.2627C10.8089 10.3803 10.4803 10.9974 10.4803 11.2263C10.4803 11.4552 10.5971 11.526 10.775 11.526C10.953 11.526 11.1505 11.4958 11.1505 11.1489C11.2223 10.7803 10.9644 9.8956 11.6457 9.91993C11.9224 9.91993 11.9287 10.0073 11.9287 10.1042C11.9287 10.2012 11.7076 10.2255 11.6339 10.3298C11.5602 10.4341 11.8111 11.7449 11.7912 11.9149C11.7485 12.2887 11.5193 13.3016 10.4243 13.2714C10.474 13.2714 9.69695 13.2636 9.58826 12.7317C9.58826 12.1998 10.1848 12.2835 10.271 12.2835C10.3572 12.2835 10.5923 12.3384 10.5923 12.4932C10.645 12.7192 10.3141 12.8043 10.2463 12.8029C10.2463 12.815 10.3137 12.9577 10.4372 12.9769C11.2028 13.0948 11.3657 12.083 11.3974 11.8647C11.3974 11.8647 10.9003 12.1136 10.6277 12.0321C10.505 12.0321 10.2032 11.8872 10.2032 11.7258V11.5068L9.91434 11.5271C9.97749 11.2968 10.0608 11.0726 10.1634 10.8569C10.3204 10.5388 10.4681 10.1957 10.1358 10.1957C9.80343 10.1957 9.73048 10.3958 9.73048 10.3958L9.72974 10.398Z" fill="#163C94"/>
<path id="Vector_5" fill-rule="evenodd" clip-rule="evenodd" d="M9.3954 15.8163H9.37992H9.36445H9.34934H9.3346H9.32023H9.30586H9.29149L9.27712 15.8145L9.26349 15.8126H9.25023L9.22701 15.8089L9.20601 15.806L9.18685 15.803L9.16917 15.8005L9.15296 15.7979L9.13785 15.796H9.12458H9.11206H9.101H9.09142H9.08258H9.07484H9.02363H9.01515H9.00557H8.99526H8.9831H8.96984L8.95547 15.7979L8.93962 15.8001L8.9223 15.8023L8.90315 15.8049L8.88288 15.8078L8.86077 15.8111L8.83609 15.8145H8.82393L8.81066 15.8163H8.7974H8.7834H8.76977H8.75577H8.74176H8.72739H8.71229H8.69755H8.68208H8.6666H8.65076H8.63454H8.61833H8.60102H8.5848H8.56712H8.54943H8.53138H8.49453H8.47537H8.28562L7.56788 15.8244L7.57856 15.5844L7.58446 15.545L7.59478 15.5056L7.61099 15.4665L7.63383 15.4278L7.66294 15.3909L7.69978 15.3581L7.73995 15.3301L7.78269 15.3076L7.82616 15.2903L7.86853 15.2778L7.9087 15.2693L7.94554 15.2634L7.98239 15.2593L8.01665 15.2571H8.04944H8.14008H8.16809H8.19461H8.29004H8.31031H8.32873L8.34568 15.2553H8.35157V13.9828V13.9751V13.9681H8.34973H8.3361H8.33278L8.30773 13.9843L8.27678 14.0057L8.23993 14.0318L8.20309 14.0613L8.16182 14.0934L8.11871 14.1277L8.07339 14.1645L8.02697 14.2014L7.9787 14.2383L7.9297 14.2751L7.87996 14.312L7.82911 14.3488L7.77753 14.3831L7.72447 14.4156L7.66957 14.4462L7.61209 14.4742L7.54982 14.4989L7.48019 14.5191L7.39986 14.5324H7.30738L7.20864 14.5114L7.12021 14.4675L7.05352 14.4089L7.00931 14.3452L6.98094 14.2792L6.96362 14.211L6.95404 14.1373L6.95072 14.0565V14.0385L6.9533 14.0222L6.95625 14.009L6.95957 13.9972L6.96325 13.9861L6.96693 13.9762L6.97062 13.9662L6.97504 13.9566L6.97909 13.947L6.98315 13.9378L6.98757 13.929L6.99199 13.9198L6.99678 13.9106L7.00194 13.901L7.00673 13.8918L7.01152 13.8833L7.01483 13.877L7.01704 13.873L7.00489 13.8656L6.98978 13.8575L6.97283 13.849L6.95293 13.8398L6.44742 13.6186L6.98241 13.4675L6.99862 13.4627L7.0141 13.4583L7.0292 13.4542L7.04431 13.4498L7.05942 13.4457L7.07452 13.4417L7.09 13.4376L7.10584 13.4339L7.12205 13.4302L7.139 13.4269L7.15632 13.4236L7.17437 13.4207L7.19353 13.4181L7.21343 13.4162H7.23369H7.25433H7.27533H7.29633H7.31696L7.33723 13.4181L7.35749 13.4207L7.37739 13.424L7.39655 13.4277L7.41534 13.4317L7.43376 13.4361L7.45218 13.4409L7.47024 13.4457L7.48829 13.4513L7.50672 13.4568L7.52551 13.4627L7.53914 13.4671L7.56935 13.476L7.59514 13.4819L7.62241 13.4863L7.65152 13.4892H7.68283H7.716H7.75284L7.78969 13.4866L7.82948 13.483L7.87111 13.4778L7.91496 13.4715L7.96028 13.4642L8.00744 13.4561L8.05608 13.4472L8.10619 13.4376L8.15777 13.428L8.21119 13.4181L8.26572 13.4085L8.32173 13.3989L8.37884 13.3901L8.43779 13.382L8.49785 13.375L8.55938 13.3691L8.62239 13.365L8.68687 13.3628H8.75208L8.81914 13.3654L8.88693 13.3709L8.95547 13.3794L9.0251 13.3915L9.07153 13.4019L9.11611 13.3919L9.18464 13.3797L9.25281 13.3713L9.31986 13.3657L9.38582 13.3632H9.45066L9.51404 13.3657L9.57594 13.3698L9.63673 13.3757L9.69016 13.3809L9.74764 13.3893L9.80401 13.3982L9.85891 13.4078L9.9127 13.4173L9.96465 13.4273L10.0151 13.4373L10.0645 13.4465L10.112 13.4553L10.1577 13.4634L10.2019 13.4708L10.2443 13.4767L10.2845 13.4819L10.3213 13.4855L10.3582 13.4878H10.3924H10.4271L10.4565 13.4859L10.4838 13.4826L10.5096 13.4785L10.5339 13.4726L10.5638 13.4634L10.5954 13.4527L10.6323 13.4413L10.6691 13.431L10.706 13.4225L10.7458 13.4155L10.787 13.4107H10.8294H10.8714L10.9112 13.4144L10.948 13.4203L10.9823 13.4277L11.0144 13.4354L11.0446 13.4435L11.0741 13.4524L11.1039 13.4612L11.6374 13.6208L11.1441 13.8376L11.1245 13.8468L11.1072 13.8556L11.0925 13.8637L11.08 13.8711L11.0836 13.8777L11.0943 13.8954L11.1054 13.915L11.1157 13.9349L11.1249 13.9548L11.133 13.9758L11.1404 13.9987L11.1459 14.0248L11.1481 14.0525L11.1448 14.1317L11.1349 14.2021L11.1161 14.2689L11.0851 14.3341L11.0368 14.3968L10.9657 14.4528L10.8755 14.4919L10.7797 14.5088H10.6912L10.6139 14.4959L10.5457 14.4764L10.4842 14.4524L10.4267 14.4255L10.3718 14.396L10.3184 14.3647L10.266 14.3315L10.2145 14.2972L10.164 14.2604L10.1146 14.2235L10.0663 14.1866L10.0196 14.1498L9.97423 14.1155L9.93076 14.0823L9.88949 14.0514L9.85264 14.023L9.81801 13.9979L9.78743 13.9769L9.76385 13.9618H9.76164H9.74874V13.9706V13.9758V13.9813V15.263H9.76569H9.78485H9.80585H9.87954H9.90681H9.93518H9.96428H9.99487H10.0266H10.0932H10.1301L10.1669 15.266L10.2056 15.2704L10.2465 15.2778L10.2896 15.2884L10.3342 15.3036L10.3788 15.3238L10.4223 15.35L10.4617 15.3821L10.4952 15.4189L10.5218 15.4584L10.5405 15.4993L10.5531 15.5406L10.5597 15.5819L10.5711 15.8178L9.81469 15.8251H9.60173H9.58331H9.54646H9.52951H9.51293H9.49672H9.48014H9.46356H9.44735H9.43114H9.41529H9.39982L9.3954 15.8163ZM7.19685 14.0573C7.19876 14.0444 7.20274 14.032 7.20864 14.0204C7.21638 14.0027 7.22632 13.9835 7.23775 13.9625C7.24895 13.943 7.25867 13.9227 7.26685 13.9017C7.27312 13.8878 7.27713 13.873 7.27864 13.8578C7.27864 13.7897 7.2009 13.7229 7.04541 13.6566C7.23296 13.6039 7.25801 13.5891 7.4415 13.6496C7.90648 13.8029 8.48495 13.4284 9.066 13.6101C9.63599 13.4299 10.2034 13.8055 10.657 13.647C10.8357 13.5851 10.8685 13.6024 11.0472 13.6555C10.8917 13.7218 10.8143 13.7885 10.8143 13.8567C10.8186 13.895 10.8326 13.9315 10.8548 13.9629C10.8756 13.9909 10.8896 14.0233 10.8957 14.0576C10.8957 14.7713 10.0022 13.769 9.81248 13.769C9.66879 13.769 9.5794 13.7911 9.54425 13.8354C9.50847 13.8829 9.49001 13.9413 9.49193 14.0009V15.2837C9.48957 15.3169 9.49871 15.35 9.51783 15.3773C9.53695 15.4046 9.56488 15.4245 9.59694 15.4337C9.87217 15.5303 10.3047 15.3412 10.3047 15.6243L9.80659 15.629C9.6861 15.629 9.58552 15.629 9.50372 15.6246C9.43445 15.623 9.36529 15.6173 9.29665 15.6077C9.04832 15.5708 9.0531 15.5708 8.79298 15.6077C8.62264 15.624 8.45157 15.6311 8.28046 15.629L7.82653 15.6338C7.82653 15.35 8.21451 15.5288 8.49306 15.4337C8.52541 15.4246 8.55367 15.4049 8.57323 15.3776C8.5928 15.3503 8.60249 15.3172 8.60065 15.2837V14.0009C8.60312 13.9694 8.59921 13.9378 8.58922 13.9079C8.5792 13.878 8.56329 13.8505 8.54243 13.8269C8.50389 13.7883 8.41657 13.769 8.28046 13.769C8.06787 13.769 7.19685 14.8188 7.19685 14.0576V14.0573Z" fill="#163C94"/>
<path id="Vector_6" fill-rule="evenodd" clip-rule="evenodd" d="M5.68674 7.88062L12.5609 7.88393L12.5561 9.21759L5.69117 9.2139L5.68674 7.88062Z" fill="#ED1C24"/>
<path id="Vector_7" fill-rule="evenodd" clip-rule="evenodd" d="M11.517 8.15077H11.5933C11.5542 8.1998 11.5196 8.34356 11.5026 8.49137C11.8143 8.47552 12.1128 8.46815 12.2241 8.71254C12.2406 8.75032 12.2441 8.79253 12.2342 8.83256C12.2241 8.87259 12.2012 8.90816 12.1688 8.93371C12.1025 8.98126 12.0089 9.00522 11.8873 9.00522C11.767 9.0043 11.648 8.98067 11.5365 8.93555C11.4842 8.95966 11.4279 8.97356 11.3704 8.97647C11.2956 8.97916 11.2214 8.96184 11.1556 8.92634C11.103 8.8904 11.0664 8.8354 11.0535 8.77299C11.0458 8.72865 11.0531 8.68301 11.0741 8.64324C11.1884 8.70745 11.3065 8.76459 11.4278 8.81428C11.402 8.74903 11.4102 8.62702 11.4234 8.54077C11.3011 8.54077 11.1843 8.54666 11.0874 8.54998C10.8641 8.70701 10.6195 8.86736 10.527 8.88542C10.6858 8.87657 10.8741 8.80469 11.0089 8.90348C10.9965 8.92807 10.9827 8.95196 10.9676 8.97499C10.9419 8.86441 10.6066 8.92818 10.5152 8.93813L10.3273 8.96062L10.3741 8.90422C10.4595 8.77742 10.4677 8.61412 10.5049 8.48695C10.5181 8.46852 10.1913 8.7741 10.083 8.94956H10.0093C10.0358 8.86994 10.0425 8.68342 10.0038 8.59311C9.96693 8.63882 9.92161 8.69227 9.87997 8.7365C9.77887 8.85166 9.63867 8.92519 9.48647 8.94293C9.39752 8.9594 9.30563 8.94753 9.22376 8.90901C8.98574 8.98274 8.63756 8.99306 8.37375 8.8869C8.34504 8.87528 8.31763 8.86069 8.29195 8.8434C8.00898 9.05867 7.34871 8.96099 7.10775 8.83013C7.06176 8.85601 7.01401 8.87853 6.96479 8.89759C6.83719 8.93865 6.70381 8.95881 6.56981 8.9573C6.39789 8.9573 6.25935 8.9235 6.1542 8.85593C6.04908 8.78836 5.9906 8.7038 5.97881 8.60232C5.97343 8.56281 5.97844 8.52256 5.99337 8.48558C6.00829 8.44861 6.03261 8.41617 6.06392 8.39148C6.15825 8.3207 6.26989 8.30227 6.40364 8.32291C6.48296 8.3367 6.56001 8.36151 6.63244 8.39664C6.68484 8.37585 6.74077 8.36545 6.79714 8.36604C6.86324 8.36324 6.92831 8.38329 6.98137 8.42281C7.00484 8.44002 7.02429 8.4621 7.0384 8.48757C7.05255 8.51301 7.06099 8.54124 7.06316 8.57025C7.06287 8.63638 7.04073 8.70052 7.00016 8.75272C6.87455 8.63653 6.73421 8.53737 6.5827 8.45783C6.47033 8.54003 6.46443 8.65098 6.51417 8.76009C6.49022 8.74955 6.46926 8.73326 6.45316 8.71258C6.43709 8.69193 6.42641 8.66761 6.42206 8.64177C6.41543 8.56804 6.46406 8.50575 6.55065 8.44013C6.50865 8.41654 6.46462 8.39667 6.41911 8.38079C6.37044 8.36619 6.31908 8.36294 6.26897 8.37124C6.21882 8.37953 6.17125 8.39922 6.12988 8.42871C5.95449 8.55809 6.11624 8.8246 6.37748 8.87289C6.46222 8.88874 6.55065 8.91233 6.64092 8.90238C6.79287 8.89066 6.93999 8.84355 7.07053 8.76488C7.06899 8.75585 7.06799 8.74675 7.06759 8.73761C7.06501 8.67126 7.14128 8.62702 7.23818 8.61191C7.32241 8.49384 7.38482 8.36162 7.4224 8.22154L6.90878 8.22412H6.85204L6.78572 8.22634C6.76616 8.2267 6.74692 8.23135 6.72935 8.23997C6.71487 8.24952 6.70345 8.26312 6.69656 8.27905L6.69361 8.28642L6.66303 8.28163L6.66929 8.26873C6.67887 8.24845 6.68698 8.23187 6.69434 8.2138L6.71645 8.16257L6.72161 8.15114H7.56463L7.55652 8.17989C7.51879 8.33165 7.45483 8.47559 7.3675 8.60527C7.39341 8.60671 7.41912 8.61003 7.44451 8.61523C7.53143 8.63133 7.61632 8.65695 7.69764 8.69153C7.74742 8.68696 7.7962 8.6745 7.84207 8.65467C7.85106 8.66263 7.85942 8.67126 7.86712 8.68047C7.81068 8.71096 7.7522 8.73757 7.69211 8.76009C7.58629 8.68453 7.45737 8.6484 7.32771 8.65799C7.30303 8.68747 7.2762 8.71508 7.24739 8.74055C7.21898 8.76547 7.18895 8.78851 7.15749 8.80949C7.61953 8.9879 7.99682 8.94698 8.21752 8.78479C8.16955 8.74033 8.13735 8.68147 8.12578 8.61707C8.12578 8.6049 8.12357 8.59274 8.12283 8.58021C7.9386 8.54851 7.65379 8.55514 7.55763 8.5592L7.68327 8.44161C7.83839 8.44787 7.94118 8.46852 8.09814 8.42907C8.12394 8.42281 8.14715 8.41654 8.16925 8.41028L8.17368 8.40511C8.23366 8.34153 8.30636 8.29132 8.38701 8.25767C8.27132 8.19205 7.78385 8.20127 7.66816 8.33139L7.63537 8.26357C7.63537 8.26357 7.69174 8.21675 7.83323 8.18616C7.93485 8.16131 8.0393 8.15014 8.14383 8.15298C8.226 8.15508 8.30753 8.16809 8.38627 8.19169C8.40816 8.20053 8.42662 8.21616 8.43896 8.23629C8.73114 8.11796 9.13018 8.10801 9.40983 8.25361L9.3634 8.34577C9.45581 8.37168 9.53536 8.43092 9.58669 8.51201C9.7138 8.52455 9.76244 8.58574 9.80776 8.6226C9.81402 8.62702 9.79155 8.64656 9.78049 8.65614C9.7827 8.65614 9.6788 8.56583 9.59406 8.56509C9.58558 8.65209 9.51336 8.73503 9.43894 8.80469C9.40423 8.83522 9.36495 8.8601 9.32251 8.87842C9.43337 8.90323 9.54947 8.88549 9.64785 8.82865C9.78639 8.75088 9.87703 8.65467 9.97761 8.51939C9.73923 8.25877 10.1806 8.01696 10.2252 8.23187C10.2462 8.33323 10.1283 8.42723 10.0664 8.51054C10.1088 8.57394 10.1158 8.67126 10.1176 8.74129C10.2799 8.56049 10.4574 8.39402 10.6482 8.24366C10.7415 8.1866 10.8495 8.15799 10.9588 8.16146C11.0325 8.16574 11.1063 8.16574 11.1799 8.16146L11.2477 8.13013C11.2477 8.13013 11.2797 8.13418 11.279 8.13271C11.2782 8.13123 11.1662 8.20643 11.1552 8.21749C11.15 8.21749 10.992 8.21749 10.9341 8.22081C10.8547 8.22541 10.7776 8.2496 10.7097 8.29121C10.5686 8.39811 10.5594 8.59053 10.5255 8.71401C10.5119 8.77248 10.4877 8.82795 10.454 8.87768C10.5465 8.83455 10.6169 8.76968 10.7094 8.70627C10.783 8.6554 10.8567 8.60527 10.9304 8.55588C10.7521 8.5275 10.8037 8.4206 10.8726 8.38926C10.9109 8.37522 10.9512 8.36752 10.992 8.36641C10.9942 8.36641 10.7749 8.44935 11.0203 8.48879H11.0288C11.1924 8.37821 11.3545 8.26762 11.5166 8.15151L11.517 8.15077ZM8.60624 8.38963C8.57805 8.37028 8.55156 8.34857 8.52702 8.32476C8.52076 8.31923 8.48207 8.35719 8.4747 8.35793C8.50001 8.38134 8.52739 8.40246 8.5565 8.42096L8.55871 8.41912C8.52923 8.4394 8.49975 8.46151 8.47065 8.48584C8.47065 8.48584 8.44891 8.58905 8.45701 8.56731C8.50104 8.52355 8.55056 8.48577 8.6044 8.45488C8.78383 8.54887 9.07933 8.65319 9.3273 8.39037C9.30335 8.38484 9.43452 8.41765 9.49494 8.50354C9.20018 8.52786 9.08743 8.7247 9.16039 8.84414C9.08316 8.86603 9.00391 8.88011 8.92384 8.88616C8.66593 8.90459 8.47175 8.86625 8.34943 8.76894C8.36442 8.73595 8.36954 8.69934 8.36417 8.66351C8.35643 8.60564 8.31295 8.56288 8.21679 8.53745C8.21623 8.50151 8.22581 8.46612 8.24442 8.43534C8.35127 8.40327 8.43528 8.35572 8.45001 8.28789C8.45038 8.28458 8.45038 8.28126 8.45001 8.27794C8.70498 8.17141 9.08191 8.15372 9.33946 8.26725L9.31366 8.3207C9.12944 8.26615 8.92311 8.21012 8.60403 8.3889L8.60624 8.38963ZM8.65782 8.42318C8.82989 8.50132 9.0517 8.58574 9.29119 8.36936C9.18898 8.32782 9.07837 8.31104 8.96843 8.32041C8.85848 8.32973 8.75233 8.36497 8.65856 8.42318H8.65782ZM11.4949 8.54113C11.4827 8.66425 11.4824 8.78295 11.4997 8.84414L11.5818 8.881C11.6924 8.80433 11.6835 8.70001 11.6187 8.59827C11.643 8.60564 11.6651 8.61891 11.6831 8.63683C11.7011 8.65474 11.7144 8.67682 11.7219 8.70111C11.7384 8.77078 11.7045 8.83603 11.6202 8.89795C11.7381 8.94882 11.7992 8.9691 11.8943 8.96615C12.1758 8.95804 12.2469 8.70517 11.9953 8.59753C11.8972 8.55551 11.7005 8.54408 11.4967 8.54371L11.4949 8.54113ZM11.4293 8.49284C11.4433 8.41131 11.4644 8.33113 11.4923 8.25324C11.4404 8.29011 11.3081 8.39111 11.1559 8.49985C11.2451 8.50317 11.3354 8.49727 11.4293 8.49284ZM7.66374 8.51201C7.73375 8.50759 7.78643 8.5157 7.84428 8.51201C7.93669 8.50766 8.02928 8.51002 8.12136 8.51902C8.12324 8.499 8.12769 8.47928 8.13462 8.46041C8.01137 8.48337 7.88588 8.49178 7.76064 8.48547C7.75769 8.48547 7.68695 8.491 7.6899 8.48031C7.6899 8.48031 7.69653 8.48326 7.66374 8.51054V8.51201ZM9.5001 8.55182C9.4837 8.54847 9.46679 8.54847 9.45036 8.55182C9.33651 8.56657 9.13165 8.69595 9.22671 8.81612C9.3763 8.76083 9.4872 8.66868 9.5001 8.55182ZM7.00053 8.6355C7.0628 8.48363 6.8981 8.34319 6.67187 8.41175C6.79173 8.46995 6.90245 8.54534 7.00053 8.6355ZM8.28532 8.70185C8.28981 8.68714 8.29044 8.67155 8.28716 8.65651C8.28274 8.63624 8.26284 8.61965 8.23189 8.60675C8.24475 8.64099 8.26277 8.67306 8.28532 8.70185ZM8.31627 8.35719C8.34976 8.34662 8.37986 8.32741 8.40359 8.30153C8.37268 8.31705 8.34342 8.3357 8.31627 8.35719ZM10.0351 8.46299C9.80039 8.29748 10.2016 8.03244 10.1769 8.2761C10.174 8.30633 10.0598 8.41249 10.0351 8.46299ZM11.1003 8.71586C11.0909 8.7348 11.0879 8.75626 11.0918 8.77705C11.1253 8.91307 11.3302 8.982 11.4908 8.92118C11.3528 8.86883 11.2217 8.79987 11.1003 8.71586Z" fill="#FFF200"/>
</g>
</g>
</g>
</g>
</svg>
